<svg width="36" height="36" viewBox="0 0 36 36" fill="black" xmlns="http://www.w3.org/2000/svg">
    <circle cx="18" cy="18" r="18"/>
    <path d="M20 9.5L27 10.5L29 12.5V16L28.5 22.5L28 26C27 26.3333 24.9 27 24.5 27C24 27 18 28 16.5 27.5C15 27 9.5 26 9 26C8.6 26 7.5 24.6667 7 24V12.5C7.5 11.5 8.7 9.5 9.5 9.5H20Z"
          fill="#333333"/>
    <path d="M16.0071 20.8875L21.1071 17.9893L16.0071 15.0911V20.8875ZM30 27.4286V8.57143C30 7.15178 28.8482 6 27.4286 6H8.57143C7.15179 6 6 7.15178 6 8.57143V27.4286C6 28.8482 7.15179 30 8.57143 30H27.4286C28.8482 30 30 28.8482 30 27.4286ZM27.75 17.9839C27.75 17.9839 27.75 21.1768 27.3429 22.7089C27.1179 23.5554 26.4589 24.2196 25.6179 24.4446C24.1018 24.8571 18 24.8571 18 24.8571C18 24.8571 11.8982 24.8571 10.3821 24.4446C9.54107 24.2196 8.88214 23.5554 8.65714 22.7089C8.25 21.1821 8.25 17.9839 8.25 17.9839C8.25 17.9839 8.25 14.7911 8.65714 13.2589C8.88214 12.4125 9.54107 11.775 10.3821 11.55C11.8982 11.1429 18 11.1429 18 11.1429C18 11.1429 24.1018 11.1429 25.6179 11.5554C26.4589 11.7804 27.1179 12.4179 27.3429 13.2643C27.75 14.7911 27.75 17.9839 27.75 17.9839Z"
    />
</svg>
