<svg width="180" height="18" viewBox="0 0 180 18" fill="none" xmlns="http://www.w3.org/2000/svg">
<path d="M2.70618 12.5855C2.83339 12.5971 2.97795 12.6086 3.13986 12.6202C3.31333 12.6202 3.51572 12.6202 3.74701 12.6202C5.1001 12.6202 6.10046 12.279 6.74809 11.5967C7.40729 10.9144 7.73689 9.97184 7.73689 8.7691C7.73689 7.50853 7.42464 6.55443 6.80013 5.90679C6.17563 5.25916 5.18684 4.93535 3.83375 4.93535C3.64871 4.93535 3.45789 4.94113 3.26129 4.95269C3.06469 4.95269 2.87965 4.96426 2.70618 4.98739V12.5855ZM10.5298 8.7691C10.5298 9.80993 10.3679 10.7178 10.0441 11.4926C9.72026 12.2675 9.25766 12.9093 8.65629 13.4182C8.06648 13.927 7.34368 14.3087 6.48788 14.5631C5.63208 14.8175 4.6722 14.9447 3.60823 14.9447C3.12251 14.9447 2.55583 14.9216 1.9082 14.8753C1.26057 14.8406 0.624502 14.7597 0 14.6325V2.92306C0.624502 2.80741 1.27213 2.73224 1.9429 2.69755C2.62522 2.65129 3.20925 2.62816 3.69497 2.62816C4.72424 2.62816 5.65521 2.74381 6.48788 2.9751C7.33212 3.2064 8.05492 3.57069 8.65629 4.06798C9.25766 4.56527 9.72026 5.20134 10.0441 5.97618C10.3679 6.75103 10.5298 7.682 10.5298 8.7691Z" fill="white"/>
<path d="M12.0963 14.7886V2.76694H20.2149V5.03943H14.8025V7.39866H19.6077V9.61911H14.8025V12.5161H20.6139V14.7886H12.0963Z" fill="white"/>
<path d="M25.6825 14.7886C25.2084 13.7825 24.74 12.7358 24.2774 11.6487C23.8148 10.5616 23.3753 9.48612 22.959 8.42215C22.5427 7.35818 22.1552 6.34048 21.7967 5.36903C21.4498 4.39758 21.1491 3.53022 20.8947 2.76694H23.8784C24.1097 3.46083 24.3583 4.21254 24.6243 5.02208C24.9019 5.82006 25.1794 6.61803 25.457 7.41601C25.7461 8.21398 26.0237 8.97726 26.2897 9.70585C26.5557 10.4344 26.8043 11.0647 27.0356 11.5967C27.2553 11.0647 27.4982 10.4344 27.7642 9.70585C28.0417 8.97726 28.3193 8.21398 28.5969 7.41601C28.886 6.61803 29.1635 5.82006 29.4295 5.02208C29.7071 4.21254 29.9615 3.46083 30.1928 2.76694H33.0724C32.8065 3.53022 32.5 4.39758 32.153 5.36903C31.8061 6.34048 31.4245 7.35818 31.0081 8.42215C30.5918 9.48612 30.1523 10.5616 29.6897 11.6487C29.2271 12.7358 28.7588 13.7825 28.2846 14.7886H25.6825Z" fill="white"/>
<path d="M33.9343 14.7886V2.76694H42.0528V5.03943H36.6404V7.39866H41.4456V9.61911H36.6404V12.5161H42.4518V14.7886H33.9343Z" fill="white"/>
<path d="M51.7923 12.4641V14.7886H43.7605V2.76694H46.4667V12.4641H51.7923Z" fill="white"/>
<path d="M54.7751 8.7691C54.7751 9.3589 54.8445 9.89089 54.9833 10.365C55.1336 10.8392 55.3418 11.2498 55.6078 11.5967C55.8853 11.9321 56.2207 12.1923 56.6139 12.3773C57.0071 12.5624 57.4582 12.6549 57.967 12.6549C58.4643 12.6549 58.9095 12.5624 59.3028 12.3773C59.7075 12.1923 60.0429 11.9321 60.3089 11.5967C60.5865 11.2498 60.7946 10.8392 60.9334 10.365C61.0837 9.89089 61.1589 9.3589 61.1589 8.7691C61.1589 8.17929 61.0837 7.6473 60.9334 7.17315C60.7946 6.68742 60.5865 6.27687 60.3089 5.94149C60.0429 5.59454 59.7075 5.32855 59.3028 5.14351C58.9095 4.95848 58.4643 4.86596 57.967 4.86596C57.4582 4.86596 57.0071 4.96426 56.6139 5.16086C56.2207 5.3459 55.8853 5.61189 55.6078 5.95884C55.3418 6.29422 55.1336 6.70477 54.9833 7.19049C54.8445 7.66465 54.7751 8.19085 54.7751 8.7691ZM63.9518 8.7691C63.9518 9.79837 63.7957 10.7062 63.4835 11.4926C63.1828 12.2675 62.7664 12.9209 62.2344 13.4529C61.7025 13.9733 61.0664 14.3665 60.3262 14.6325C59.5977 14.8985 58.8112 15.0315 57.967 15.0315C57.1459 15.0315 56.3711 14.8985 55.6425 14.6325C54.9139 14.3665 54.2778 13.9733 53.7343 13.4529C53.1907 12.9209 52.7628 12.2675 52.4506 11.4926C52.1383 10.7062 51.9822 9.79837 51.9822 8.7691C51.9822 7.73982 52.1441 6.83776 52.4679 6.06292C52.7917 5.27651 53.2254 4.61731 53.769 4.08533C54.3241 3.55335 54.9601 3.15436 55.6772 2.88837C56.4058 2.62238 57.169 2.48938 57.967 2.48938C58.7881 2.48938 59.563 2.62238 60.2915 2.88837C61.0201 3.15436 61.6562 3.55335 62.1997 4.08533C62.7433 4.61731 63.1712 5.27651 63.4835 6.06292C63.7957 6.83776 63.9518 7.73982 63.9518 8.7691Z" fill="white"/>
<path d="M69.122 2.62816C70.9145 2.62816 72.2908 2.94619 73.2506 3.58226C74.2105 4.20676 74.6905 5.23603 74.6905 6.67007C74.6905 8.11568 74.2047 9.1623 73.2333 9.80993C72.2618 10.446 70.8741 10.764 69.0699 10.764H68.2199V14.7886H65.5138V2.94041C66.1036 2.82476 66.7281 2.74381 67.3873 2.69755C68.0465 2.65129 68.6247 2.62816 69.122 2.62816ZM69.2955 4.93535C69.0989 4.93535 68.9023 4.94113 68.7057 4.95269C68.5206 4.96426 68.3587 4.97582 68.2199 4.98739V8.45684H69.0699C70.0067 8.45684 70.7122 8.32963 71.1863 8.0752C71.6605 7.82078 71.8976 7.34662 71.8976 6.65273C71.8976 6.31735 71.8339 6.03979 71.7067 5.82006C71.5911 5.60033 71.4176 5.42685 71.1863 5.29964C70.9666 5.16086 70.6948 5.06834 70.371 5.02208C70.0472 4.96426 69.6887 4.93535 69.2955 4.93535Z" fill="white"/>
<path d="M75.9838 14.7886V2.76694H84.1023V5.03943H78.69V7.39866H83.4952V9.61911H78.69V12.5161H84.5013V14.7886H75.9838Z" fill="white"/>
<path d="M88.5163 12.5855C88.6435 12.5971 88.788 12.6086 88.9499 12.6202C89.1234 12.6202 89.3258 12.6202 89.5571 12.6202C90.9102 12.6202 91.9105 12.279 92.5582 11.5967C93.2174 10.9144 93.547 9.97184 93.547 8.7691C93.547 7.50853 93.2347 6.55443 92.6102 5.90679C91.9857 5.25916 90.9969 4.93535 89.6438 4.93535C89.4588 4.93535 89.268 4.94113 89.0714 4.95269C88.8748 4.95269 88.6897 4.96426 88.5163 4.98739V12.5855ZM96.3399 8.7691C96.3399 9.80993 96.178 10.7178 95.8541 11.4926C95.5303 12.2675 95.0677 12.9093 94.4664 13.4182C93.8766 13.927 93.1538 14.3087 92.298 14.5631C91.4422 14.8175 90.4823 14.9447 89.4183 14.9447C88.9326 14.9447 88.3659 14.9216 87.7183 14.8753C87.0706 14.8406 86.4346 14.7597 85.8101 14.6325V2.92306C86.4346 2.80741 87.0822 2.73224 87.753 2.69755C88.4353 2.65129 89.0193 2.62816 89.505 2.62816C90.5343 2.62816 91.4653 2.74381 92.298 2.9751C93.1422 3.2064 93.865 3.57069 94.4664 4.06798C95.0677 4.56527 95.5303 5.20134 95.8541 5.97618C96.178 6.75103 96.3399 7.682 96.3399 8.7691Z" fill="white"/>
<path d="M105.387 14.9447C104.728 14.9447 104.069 14.9216 103.41 14.8753C102.762 14.8406 102.085 14.7481 101.38 14.5978V2.94041C101.935 2.83633 102.542 2.76115 103.201 2.71489C103.861 2.65707 104.474 2.62816 105.04 2.62816C105.803 2.62816 106.503 2.68598 107.139 2.80163C107.787 2.90571 108.342 3.09075 108.805 3.35674C109.267 3.62274 109.626 3.97546 109.88 4.41493C110.146 4.84283 110.279 5.37481 110.279 6.01088C110.279 6.97076 109.816 7.72826 108.891 8.28337C109.655 8.57249 110.175 8.9657 110.453 9.46299C110.73 9.96028 110.869 10.5212 110.869 11.1457C110.869 12.4062 110.406 13.3546 109.481 13.9906C108.567 14.6267 107.203 14.9447 105.387 14.9447ZM104.017 9.54972V12.6549C104.213 12.678 104.427 12.6954 104.659 12.7069C104.89 12.7185 105.144 12.7243 105.422 12.7243C106.231 12.7243 106.885 12.6086 107.382 12.3773C107.879 12.146 108.128 11.7181 108.128 11.0936C108.128 10.5385 107.92 10.1453 107.504 9.91402C107.087 9.67115 106.492 9.54972 105.717 9.54972H104.017ZM104.017 7.4854H105.335C106.168 7.4854 106.763 7.38131 107.122 7.17315C107.48 6.95341 107.66 6.60647 107.66 6.13231C107.66 5.64659 107.475 5.30542 107.105 5.10882C106.734 4.91222 106.191 4.81392 105.474 4.81392C105.243 4.81392 104.994 4.8197 104.728 4.83126C104.462 4.83126 104.225 4.84283 104.017 4.86596V7.4854Z" fill="white"/>
<path d="M116.155 7.71091C116.64 6.88981 117.103 6.0687 117.542 5.2476C117.982 4.42649 118.387 3.59961 118.757 2.76694H121.74C121.081 4.0622 120.399 5.31699 119.693 6.5313C118.988 7.74561 118.242 8.9657 117.456 10.1916V14.7886H114.749V10.2263C113.963 9.00039 113.211 7.77452 112.494 6.54864C111.789 5.32277 111.106 4.0622 110.447 2.76694H113.587C113.957 3.59961 114.356 4.42649 114.784 5.2476C115.212 6.0687 115.669 6.88981 116.155 7.71091Z" fill="white"/>
<path d="M129.601 14.9447C128.942 14.9447 128.283 14.9216 127.623 14.8753C126.976 14.8406 126.299 14.7481 125.594 14.5978V2.94041C126.149 2.83633 126.756 2.76115 127.415 2.71489C128.074 2.65707 128.687 2.62816 129.254 2.62816C130.017 2.62816 130.717 2.68598 131.353 2.80163C132.001 2.90571 132.556 3.09075 133.018 3.35674C133.481 3.62274 133.839 3.97546 134.094 4.41493C134.36 4.84283 134.493 5.37481 134.493 6.01088C134.493 6.97076 134.03 7.72826 133.105 8.28337C133.868 8.57249 134.389 8.9657 134.666 9.46299C134.944 9.96028 135.083 10.5212 135.083 11.1457C135.083 12.4062 134.62 13.3546 133.695 13.9906C132.781 14.6267 131.417 14.9447 129.601 14.9447ZM128.231 9.54972V12.6549C128.427 12.678 128.641 12.6954 128.872 12.7069C129.104 12.7185 129.358 12.7243 129.636 12.7243C130.445 12.7243 131.099 12.6086 131.596 12.3773C132.093 12.146 132.342 11.7181 132.342 11.0936C132.342 10.5385 132.134 10.1453 131.717 9.91402C131.301 9.67115 130.705 9.54972 129.931 9.54972H128.231ZM128.231 7.4854H129.549C130.382 7.4854 130.977 7.38131 131.336 7.17315C131.694 6.95341 131.873 6.60647 131.873 6.13231C131.873 5.64659 131.688 5.30542 131.318 5.10882C130.948 4.91222 130.405 4.81392 129.688 4.81392C129.456 4.81392 129.208 4.8197 128.942 4.83126C128.676 4.83126 128.439 4.84283 128.231 4.86596V7.4854Z" fill="#D82222"/>
<path d="M138.828 8.7691C138.828 9.3589 138.897 9.89089 139.036 10.365C139.186 10.8392 139.394 11.2498 139.66 11.5967C139.938 11.9321 140.273 12.1923 140.666 12.3773C141.06 12.5624 141.511 12.6549 142.019 12.6549C142.517 12.6549 142.962 12.5624 143.355 12.3773C143.76 12.1923 144.095 11.9321 144.361 11.5967C144.639 11.2498 144.847 10.8392 144.986 10.365C145.136 9.89089 145.211 9.3589 145.211 8.7691C145.211 8.17929 145.136 7.6473 144.986 7.17315C144.847 6.68742 144.639 6.27687 144.361 5.94149C144.095 5.59454 143.76 5.32855 143.355 5.14351C142.962 4.95848 142.517 4.86596 142.019 4.86596C141.511 4.86596 141.06 4.96426 140.666 5.16086C140.273 5.3459 139.938 5.61189 139.66 5.95884C139.394 6.29422 139.186 6.70477 139.036 7.19049C138.897 7.66465 138.828 8.19085 138.828 8.7691ZM148.004 8.7691C148.004 9.79837 147.848 10.7062 147.536 11.4926C147.235 12.2675 146.819 12.9209 146.287 13.4529C145.755 13.9733 145.119 14.3665 144.379 14.6325C143.65 14.8985 142.864 15.0315 142.019 15.0315C141.198 15.0315 140.424 14.8985 139.695 14.6325C138.966 14.3665 138.33 13.9733 137.787 13.4529C137.243 12.9209 136.815 12.2675 136.503 11.4926C136.191 10.7062 136.035 9.79837 136.035 8.7691C136.035 7.73982 136.197 6.83776 136.52 6.06292C136.844 5.27651 137.278 4.61731 137.821 4.08533C138.377 3.55335 139.013 3.15436 139.73 2.88837C140.458 2.62238 141.221 2.48938 142.019 2.48938C142.841 2.48938 143.615 2.62238 144.344 2.88837C145.073 3.15436 145.709 3.55335 146.252 4.08533C146.796 4.61731 147.224 5.27651 147.536 6.06292C147.848 6.83776 148.004 7.73982 148.004 8.7691Z" fill="#D82222"/>
<path d="M148.492 0.407715H151.112L156.94 17.1999H154.286L148.492 0.407715Z" fill="white"/>
<path d="M160.674 14.1468C160.015 14.1468 159.356 14.1236 158.697 14.0774C158.049 14.0427 157.373 13.9502 156.667 13.7998V2.14244C157.222 2.03836 157.829 1.96319 158.489 1.91693C159.148 1.8591 159.761 1.83019 160.327 1.83019C161.091 1.83019 161.79 1.88802 162.426 2.00366C163.074 2.10775 163.629 2.29279 164.092 2.55878C164.554 2.82477 164.913 3.1775 165.167 3.61696C165.433 4.04486 165.566 4.57684 165.566 5.21291C165.566 6.17279 165.104 6.93029 164.178 7.4854C164.942 7.77453 165.462 8.16773 165.74 8.66502C166.017 9.16231 166.156 9.7232 166.156 10.3477C166.156 11.6083 165.693 12.5566 164.768 13.1927C163.855 13.8287 162.49 14.1468 160.674 14.1468ZM159.304 8.75176V11.8569C159.5 11.88 159.714 11.8974 159.946 11.909C160.177 11.9205 160.431 11.9263 160.709 11.9263C161.519 11.9263 162.172 11.8107 162.669 11.5794C163.167 11.3481 163.415 10.9202 163.415 10.2957C163.415 9.74055 163.207 9.34735 162.791 9.11605C162.374 8.87319 161.779 8.75176 161.004 8.75176H159.304ZM159.304 6.68743H160.622C161.455 6.68743 162.051 6.58335 162.409 6.37518C162.768 6.15545 162.947 5.8085 162.947 5.33434C162.947 4.84862 162.762 4.50746 162.392 4.31085C162.022 4.11425 161.478 4.01595 160.761 4.01595C160.53 4.01595 160.281 4.02173 160.015 4.0333C159.749 4.0333 159.512 4.04486 159.304 4.06799V6.68743Z" fill="white"/>
<path d="M169.901 7.97113C169.901 8.56094 169.97 9.09292 170.109 9.56708C170.259 10.0412 170.468 10.4518 170.734 10.7987C171.011 11.1341 171.347 11.3943 171.74 11.5794C172.133 11.7644 172.584 11.8569 173.093 11.8569C173.59 11.8569 174.035 11.7644 174.429 11.5794C174.833 11.3943 175.169 11.1341 175.435 10.7987C175.712 10.4518 175.92 10.0412 176.059 9.56708C176.21 9.09292 176.285 8.56094 176.285 7.97113C176.285 7.38132 176.21 6.84934 176.059 6.37518C175.92 5.88946 175.712 5.4789 175.435 5.14352C175.169 4.79658 174.833 4.53058 174.429 4.34555C174.035 4.16051 173.59 4.06799 173.093 4.06799C172.584 4.06799 172.133 4.16629 171.74 4.3629C171.347 4.54793 171.011 4.81392 170.734 5.16087C170.468 5.49625 170.259 5.9068 170.109 6.39253C169.97 6.86669 169.901 7.39289 169.901 7.97113ZM179.078 7.97113C179.078 9.0004 178.921 9.90824 178.609 10.6947C178.309 11.4695 177.892 12.1229 177.36 12.6549C176.828 13.1753 176.192 13.5685 175.452 13.8345C174.723 14.1005 173.937 14.2335 173.093 14.2335C172.272 14.2335 171.497 14.1005 170.768 13.8345C170.04 13.5685 169.404 13.1753 168.86 12.6549C168.317 12.1229 167.889 11.4695 167.576 10.6947C167.264 9.90824 167.108 9.0004 167.108 7.97113C167.108 6.94186 167.27 6.0398 167.594 5.26495C167.918 4.47854 168.351 3.81935 168.895 3.28736C169.45 2.75538 170.086 2.35639 170.803 2.0904C171.532 1.82441 172.295 1.69141 173.093 1.69141C173.914 1.69141 174.689 1.82441 175.417 2.0904C176.146 2.35639 176.782 2.75538 177.326 3.28736C177.869 3.81935 178.297 4.47854 178.609 5.26495C178.921 6.0398 179.078 6.94186 179.078 7.97113Z" fill="white"/>
</svg>
