<svg width="261" height="373" viewBox="0 0 261 373" fill="none" xmlns="http://www.w3.org/2000/svg">
<path d="M92.9759 24.7458L90.7089 130.312L87.7617 28.3782L92.7492 24.7458H92.9759Z" fill="url(#paint0_linear_2869_20760)"/>
<path d="M84.138 31.5569L81.871 125.318L78.9238 34.9622L83.9113 31.5569H84.138Z" fill="url(#paint1_linear_2869_20760)"/>
<path d="M101.597 18.3887L99.33 133.717L96.3828 22.2481L101.597 18.3887Z" fill="url(#paint2_linear_2869_20760)"/>
<path d="M109.984 12.2595L107.943 137.35L104.996 16.1189L109.984 12.2595Z" fill="url(#paint3_linear_2869_20760)"/>
<path d="M118.597 6.12939L116.33 141.436L113.383 9.9888L118.597 6.12939Z" fill="url(#paint4_linear_2869_20760)"/>
<path d="M127.21 0L124.943 145.522L121.77 3.85941L127.21 0Z" fill="url(#paint5_linear_2869_20760)"/>
<path d="M166.431 185.932L164.391 274.017L161.443 188.202L166.431 185.932Z" fill="url(#paint6_linear_2869_20760)"/>
<path d="M200.661 170.268L198.394 273.791L195.447 172.765L200.661 170.268Z" fill="url(#paint7_linear_2869_20760)"/>
<path d="M149.427 193.651L147.387 274.018L144.439 195.922L149.427 193.651Z" fill="url(#paint8_linear_2869_20760)"/>
<path d="M183.658 177.987L181.391 274.018L178.443 180.484L183.658 177.987Z" fill="url(#paint9_linear_2869_20760)"/>
<path d="M192.046 174.128L190.006 274.018L186.832 176.625L192.046 174.128Z" fill="url(#paint10_linear_2869_20760)"/>
<path d="M175.046 182.073L172.779 274.018L169.832 184.343L175.046 182.073Z" fill="url(#paint11_linear_2869_20760)"/>
<path d="M141.036 197.511L138.769 274.018L135.822 200.008L141.036 197.511Z" fill="url(#paint12_linear_2869_20760)"/>
<path d="M158.038 189.792L155.771 274.245L152.824 192.062L158.038 189.792Z" fill="url(#paint13_linear_2869_20760)"/>
<path d="M128.121 156.874L124.947 274.245L122.68 154.377L128.121 156.874Z" fill="url(#paint14_linear_2869_20760)"/>
<path d="M119.497 152.787L116.55 274.018L114.283 150.29L119.497 152.787Z" fill="url(#paint15_linear_2869_20760)"/>
<path d="M110.888 148.701L107.941 274.018L105.674 146.43L110.888 148.701Z" fill="url(#paint16_linear_2869_20760)"/>
<path d="M102.503 144.842L99.3294 274.018L97.2891 142.344L102.503 144.842Z" fill="url(#paint17_linear_2869_20760)"/>
<path d="M93.888 140.755L90.9409 274.245L88.6738 138.485L93.888 140.755Z" fill="url(#paint18_linear_2869_20760)"/>
<path d="M85.4995 136.895L82.3256 274.018L80.0586 134.398L85.4995 136.895Z" fill="url(#paint19_linear_2869_20760)"/>
<path d="M76.8841 132.809L73.937 273.791L71.6699 130.312L76.8841 132.809Z" fill="url(#paint20_linear_2869_20760)"/>
<path d="M68.4956 128.949L65.3217 274.018L63.0547 126.452L68.4956 128.949Z" fill="url(#paint21_linear_2869_20760)"/>
<path d="M174.593 96.7124L171.646 173.901L169.379 92.853L174.593 96.7124Z" fill="url(#paint22_linear_2869_20760)"/>
<path d="M183.661 103.069L180.714 170.268L178.447 99.2095L183.661 103.069Z" fill="url(#paint23_linear_2869_20760)"/>
<path d="M166.204 90.3555L163.257 177.76L160.99 86.4961L166.204 90.3555Z" fill="url(#paint24_linear_2869_20760)"/>
<path d="M157.583 83.9986L154.636 181.619L152.369 80.1392L157.583 83.9986Z" fill="url(#paint25_linear_2869_20760)"/>
<path d="M148.974 77.8694L146.027 185.479L143.986 74.01L148.974 77.8694Z" fill="url(#paint26_linear_2869_20760)"/>
<path d="M140.583 71.5122L137.636 189.792L135.369 67.6528L140.583 71.5122Z" fill="url(#paint27_linear_2869_20760)"/>
<path d="M31.9971 320.104H14.7675L11.3669 328.05H2.52539L19.0749 290.591H27.6897L44.4659 328.05H35.3977L31.9971 320.104ZM29.2766 313.52L23.3823 299.218L17.4879 313.52H29.2766ZM82.7791 328.05L75.5245 317.607H75.0711H67.5898V328.05H58.975V290.591H75.0711C78.4717 290.591 81.1922 291.045 83.6859 292.18C86.1797 293.315 87.9933 294.904 89.3536 296.947C90.7138 298.991 91.3939 301.488 91.3939 304.212C91.3939 306.936 90.7138 309.434 89.3536 311.477C87.9933 313.52 86.1797 315.109 83.6859 316.017L92.074 328.05H82.7791ZM80.512 299.445C79.1518 298.31 77.1115 297.856 74.6177 297.856H67.5898V310.796H74.6177C77.1115 310.796 79.1518 310.115 80.512 308.98C81.8723 307.845 82.5524 306.255 82.5524 304.212C82.5524 302.169 81.8723 300.58 80.512 299.445ZM142.629 328.05V305.574L131.747 323.963H127.893L117.012 306.028V328.05H108.85V290.591H116.105L130.161 313.747L143.99 290.591H151.017V328.05H142.629ZM177.995 326.234C174.822 324.644 172.554 322.147 170.741 319.423C168.927 316.471 168.02 313.293 168.02 309.434C168.02 305.801 168.927 302.396 170.741 299.445C172.554 296.493 174.822 294.223 177.995 292.634C181.169 291.045 184.57 290.137 188.424 290.137C192.278 290.137 195.678 291.045 198.852 292.634C202.026 294.223 204.293 296.72 206.107 299.445C207.921 302.396 208.827 305.574 208.827 309.434C208.827 313.066 207.921 316.471 206.107 319.423C204.293 322.374 201.799 324.644 198.852 326.234C195.678 327.823 192.278 328.731 188.424 328.731C184.57 328.731 180.943 327.823 177.995 326.234ZM194.318 319.877C196.132 318.969 197.492 317.38 198.399 315.563C199.306 313.747 199.986 311.704 199.986 309.434C199.986 307.164 199.532 305.12 198.399 303.304C197.492 301.488 195.905 300.126 194.318 298.991C192.505 298.083 190.464 297.401 188.424 297.401C186.157 297.401 184.343 297.856 182.529 298.991C180.716 299.899 179.356 301.488 178.449 303.304C177.542 305.12 176.862 307.164 176.862 309.434C176.862 311.704 177.315 313.747 178.449 315.563C179.356 317.38 180.943 318.742 182.529 319.877C184.343 320.785 186.383 321.466 188.424 321.466C190.464 321.239 192.505 320.785 194.318 319.877ZM260.063 290.591V328.05H253.035L234.445 305.347V328.05H225.83V290.591H233.085L251.675 313.293V290.591H260.063Z" fill="#4F4E4E"/>
<path d="M59.2013 337.584H64.4155C65.7758 337.584 66.9093 337.812 68.0428 338.493C69.1764 338.947 69.8565 339.855 70.5366 340.763C71.2167 341.671 71.4434 342.806 71.4434 344.168C71.4434 345.53 71.2167 346.438 70.5366 347.574C69.8565 348.482 69.1764 349.39 68.0428 349.844C66.9093 350.298 65.7758 350.752 64.4155 350.752H58.9746V337.584H59.2013ZM64.4155 348.936C65.5491 348.936 66.4559 348.709 67.136 348.255C67.8161 347.801 68.4962 347.347 68.9496 346.665C69.4031 345.984 69.6298 345.076 69.6298 344.168C69.6298 343.26 69.4031 342.352 68.9496 341.671C68.4962 340.99 67.8161 340.309 67.136 340.082C66.4559 339.628 65.5491 339.401 64.4155 339.401H61.015V348.936H64.4155ZM83.4588 348.936V350.525H74.1639V337.812H83.2321V339.401H75.9775V343.26H82.552V344.849H76.2042V348.936H83.4588ZM97.2878 337.584L91.6202 350.298H89.8065L84.1389 337.584H86.1792L90.7134 348.028L95.2475 337.584H97.2878ZM108.396 348.936V350.525H99.1015V337.812H108.17V339.401H100.915V343.26H107.263V344.849H100.915V348.936H108.396ZM111.344 337.584H113.157V348.709H120.185V350.298H111.344V337.584ZM124.266 349.844C123.132 349.163 122.452 348.482 121.772 347.574C121.092 346.665 120.865 345.53 120.865 344.168C120.865 343.033 121.092 341.898 121.772 340.763C122.452 339.855 123.132 338.947 124.266 338.493C125.399 338.039 126.533 337.584 127.666 337.584C129.027 337.584 130.16 337.812 131.067 338.493C132.2 339.174 132.881 339.855 133.561 340.763C134.241 341.671 134.467 342.806 134.467 344.168C134.467 345.303 134.241 346.438 133.561 347.574C132.881 348.482 132.2 349.39 131.067 349.844C129.933 350.298 128.8 350.752 127.666 350.752C126.306 350.752 125.173 350.298 124.266 349.844ZM130.16 348.482C130.84 348.028 131.52 347.574 131.974 346.665C132.427 345.984 132.654 345.076 132.654 344.168C132.654 343.26 132.427 342.352 131.974 341.671C131.52 340.99 130.84 340.309 130.16 339.855C129.48 339.401 128.573 339.174 127.666 339.174C126.76 339.174 125.853 339.401 125.173 339.855C124.492 340.309 123.812 340.763 123.359 341.671C122.906 342.352 122.679 343.26 122.679 344.168C122.679 345.076 122.906 345.984 123.359 346.665C123.812 347.347 124.492 348.028 125.173 348.482C125.853 348.936 126.76 349.163 127.666 349.163C128.573 348.936 129.48 348.709 130.16 348.482ZM146.256 338.947C147.163 339.628 147.616 340.763 147.616 342.125C147.616 343.487 147.163 344.622 146.256 345.303C145.349 345.984 143.989 346.438 142.402 346.438H139.228V350.298H137.415V337.584H142.402C143.989 337.584 145.123 338.039 146.256 338.947ZM144.896 344.168C145.576 343.714 145.803 343.033 145.803 342.125C145.803 341.217 145.576 340.536 144.896 340.082C144.216 339.628 143.309 339.401 142.175 339.401H139.002V345.076H142.175C143.309 345.076 144.216 344.849 144.896 344.168ZM162.126 350.525V341.217L157.591 348.936H156.685L152.151 341.217V350.525H150.337V337.812H151.924L157.365 346.892L162.579 337.812H164.166V350.525H162.126ZM177.088 348.936V350.525H167.793V337.812H176.861V339.401H169.607V343.26H175.955V344.849H169.607V348.936H177.088ZM190.917 337.584V350.298H189.33L181.622 340.763V350.298H180.035V337.584H181.622L189.103 347.347V337.812H190.917V337.584ZM197.265 339.174H192.957V337.584H203.613V339.174H199.305V350.298H197.492V339.174H197.265Z" fill="url(#paint28_linear_2869_20760)"/>
<path d="M259.612 343.715H218.578V346.439H259.612V343.715Z" fill="#4F4E4E"/>
<path d="M41.9692 343.715H0.935547V346.439H41.9692V343.715Z" fill="#4F4E4E"/>
<path d="M10.459 364.146V372.773H9.77887V365.508L6.15158 371.638H5.69817L2.07088 365.508V372.773H1.16406V364.146H2.07088L5.92488 370.73L9.77887 364.146H10.459Z" fill="#4F4E4E"/>
<path d="M29.505 368.686H22.2504C22.2504 369.367 22.4771 370.048 22.7038 370.502C22.9305 370.956 23.384 371.41 24.0641 371.637C24.5175 371.864 25.1976 372.091 25.8777 372.091C26.3311 372.091 27.0112 372.091 27.4647 371.864C27.9181 371.637 28.3715 371.41 28.5982 370.956L29.0516 371.41C28.5982 371.864 28.1448 372.091 27.6914 372.545C27.2379 372.772 26.5578 372.999 25.8777 372.999C24.9709 372.999 24.2908 372.772 23.6107 372.545C22.9305 372.091 22.4771 371.637 22.0237 370.956C21.5703 370.275 21.5703 369.594 21.5703 368.686C21.5703 367.778 21.797 367.097 22.0237 366.416C22.4771 365.735 22.9305 365.281 23.384 364.827C24.0641 364.373 24.7442 364.373 25.4243 364.373C26.1044 364.373 26.7845 364.6 27.4647 364.827C28.1448 365.281 28.5982 365.735 28.8249 366.416C29.2783 367.097 29.2783 367.778 29.2783 368.686H29.505ZM23.8374 365.054C23.384 365.281 22.9305 365.735 22.7038 366.189C22.4771 366.643 22.2504 367.324 22.2504 367.778H28.8249C28.8249 367.097 28.5982 366.643 28.3715 366.189C28.1448 365.735 27.6914 365.281 27.2379 365.054C26.7845 364.827 26.3311 364.6 25.651 364.6C24.7442 364.827 24.2908 364.827 23.8374 365.054Z" fill="#4F4E4E"/>
<path d="M46.5044 364.145V372.772H45.5976V369.14C44.6908 369.594 43.5573 369.821 42.6504 369.821C41.7436 369.821 40.8368 369.594 40.3834 369.14C39.7033 368.686 39.4766 368.005 39.4766 367.097V364.145H40.3834V366.87C40.3834 367.551 40.6101 368.005 41.0635 368.459C41.5169 368.913 42.197 368.913 42.8771 368.913C43.784 368.913 44.6908 368.686 45.8243 368.232V363.918H46.5044V364.145Z" fill="#4F4E4E"/>
<path d="M63.9599 364.828H60.5594V372.546H59.6525V364.828H56.252V364.146H63.7332V364.828H63.9599Z" fill="#4F4E4E"/>
<path d="M79.6051 368.006C80.0585 368.46 80.512 369.141 80.512 370.049C80.512 370.957 80.2853 371.638 79.6051 372.092C78.925 372.546 78.2449 372.773 77.1114 372.773H73.9375V364.146H74.8443V367.325H77.3381C78.2449 367.325 79.1517 367.552 79.6051 368.006ZM78.925 371.411C79.3784 370.957 79.6051 370.503 79.6051 369.822C79.6051 369.141 79.3784 368.687 78.925 368.233C78.4716 367.779 77.7915 367.779 76.8847 367.779H74.6176V371.865H76.8847C77.7915 372.092 78.4716 371.865 78.925 371.411ZM82.0989 364.146H83.0057V372.773H82.0989V364.146Z" fill="#4F4E4E"/>
<path d="M108.167 372.091C107.487 371.637 107.034 371.183 106.58 370.502C106.127 369.821 106.127 369.14 106.127 368.232C106.127 367.324 106.354 366.643 106.58 365.962C107.034 365.281 107.487 364.827 108.167 364.372C108.847 363.918 109.528 363.918 110.434 363.918C111.114 363.918 111.795 364.145 112.248 364.372C112.701 364.6 113.155 365.054 113.608 365.508L112.928 365.962C112.701 365.508 112.248 365.281 111.795 365.054C111.341 364.827 110.888 364.827 110.208 364.827C109.528 364.827 108.847 365.054 108.394 365.281C107.941 365.508 107.487 365.962 107.26 366.643C107.034 367.097 106.807 367.778 106.807 368.459C106.807 369.14 107.034 369.821 107.26 370.275C107.487 370.729 107.941 371.183 108.394 371.637C108.847 371.864 109.528 372.091 110.208 372.091C110.661 372.091 111.341 372.091 111.795 371.864C112.248 371.637 112.701 371.41 112.928 370.956L113.608 371.41C113.155 371.864 112.701 372.318 112.248 372.545C111.795 372.772 111.114 372.999 110.434 372.999C109.528 372.772 108.847 372.545 108.167 372.091Z" fill="#4F4E4E"/>
<path d="M130.387 364.827C131.067 365.281 131.521 365.735 131.747 366.416C131.974 367.097 132.201 367.778 132.201 368.686C132.201 369.595 131.974 370.276 131.747 370.957C131.294 371.638 130.841 372.092 130.161 372.546C129.48 373 128.8 373 127.893 373C126.987 373 126.08 372.773 125.4 372.319C124.72 371.865 124.266 371.184 123.813 370.276C123.359 369.368 123.359 368.459 123.359 367.324C123.359 365.962 123.586 365.054 123.813 364.146C124.039 363.238 124.493 362.557 125.173 362.103C125.853 361.649 126.533 361.195 127.667 360.968L131.521 360.06L131.747 360.741L128.12 361.649C127.213 361.876 126.533 362.103 126.08 362.557C125.626 363.011 125.173 363.465 124.946 364.146C124.72 364.827 124.493 365.735 124.493 366.87C124.72 366.189 125.173 365.508 125.853 365.054C126.533 364.6 127.213 364.373 128.12 364.373C129.027 364.146 129.707 364.373 130.387 364.827ZM129.707 371.638C130.161 371.411 130.614 370.957 130.841 370.276C131.067 369.822 131.294 369.141 131.294 368.459C131.294 367.778 131.067 367.097 130.841 366.643C130.614 366.189 130.161 365.735 129.707 365.508C129.254 365.281 128.574 365.054 127.893 365.054C127.213 365.054 126.76 365.281 126.08 365.508C125.626 365.735 125.173 366.189 124.946 366.643C124.72 367.097 124.493 367.778 124.493 368.459C124.493 369.141 124.72 369.822 124.946 370.276C125.173 370.73 125.626 371.184 126.08 371.638C126.533 371.865 127.213 372.092 127.893 372.092C128.8 372.092 129.254 371.865 129.707 371.638Z" fill="#4F4E4E"/>
<path d="M148.978 368.006C149.432 368.46 149.885 369.141 149.885 370.049C149.885 370.957 149.658 371.638 148.978 372.092C148.298 372.546 147.618 372.773 146.484 372.773H143.311V364.146H144.217V367.325H146.711C147.618 367.325 148.298 367.552 148.978 368.006ZM148.298 371.411C148.751 370.957 148.978 370.503 148.978 369.822C148.978 369.141 148.751 368.687 148.298 368.233C147.845 367.779 147.165 367.779 146.258 367.779H143.991V371.865H146.258C147.165 372.092 147.845 371.865 148.298 371.411ZM151.245 364.146H152.152V372.773H151.245V364.146Z" fill="#4F4E4E"/>
<path d="M170.737 370.276C170.737 370.957 170.51 371.638 169.83 372.092C169.377 372.546 168.47 372.773 167.336 372.773H163.709V364.146H167.336C168.243 364.146 168.923 364.373 169.603 364.6C170.283 364.827 170.51 365.508 170.51 366.189C170.51 366.644 170.283 367.098 170.057 367.552C169.83 368.006 169.377 368.233 168.923 368.233C170.057 368.46 170.737 369.141 170.737 370.276ZM164.616 368.006H167.336C168.016 368.006 168.696 367.779 168.923 367.552C169.377 367.325 169.603 366.871 169.603 366.416C169.603 365.962 169.377 365.508 168.923 365.281C168.47 365.054 168.016 364.827 167.336 364.827H164.616V368.006ZM170.057 370.276C170.057 369.595 169.83 369.368 169.603 368.914C169.15 368.687 168.696 368.46 167.79 368.46H164.843V371.865H167.79C169.15 372.092 170.057 371.411 170.057 370.276Z" fill="#4F4E4E"/>
<path d="M187.06 364.826C187.514 365.281 187.967 366.189 187.967 367.097V372.545H187.287V370.956C187.06 371.41 186.607 371.864 186.154 372.091C185.7 372.318 185.02 372.545 184.34 372.545C183.433 372.545 182.753 372.318 182.073 371.864C181.619 371.41 181.166 370.729 181.166 370.048C181.166 369.367 181.393 368.686 181.846 368.232C182.3 367.778 183.206 367.551 184.34 367.551H187.287V366.87C187.287 365.962 187.06 365.508 186.607 365.054C186.154 364.599 185.473 364.372 184.793 364.372C184.113 364.372 183.66 364.372 183.206 364.599C182.753 364.826 182.3 365.053 181.846 365.281L181.393 364.599C181.846 364.145 182.3 363.918 182.98 363.691C183.66 363.464 184.113 363.464 184.793 363.464C185.7 364.145 186.607 364.372 187.06 364.826ZM186.154 371.637C186.607 371.41 187.06 370.729 187.287 370.275V368.686H184.34C183.433 368.686 182.98 368.913 182.526 369.14C182.073 369.367 182.073 369.821 182.073 370.502C182.073 370.956 182.3 371.41 182.753 371.864C183.206 372.091 183.66 372.318 184.567 372.318C185.02 372.091 185.473 371.864 186.154 371.637Z" fill="#4F4E4E"/>
<path d="M208.828 364.601C209.508 365.055 209.962 365.509 210.415 366.19C210.868 366.871 210.868 367.552 210.868 368.46C210.868 369.368 210.642 370.049 210.415 370.73C209.962 371.411 209.508 371.865 208.828 372.319C208.148 372.773 207.468 372.773 206.788 372.773C206.108 372.773 205.428 372.546 204.747 372.319C204.067 372.092 203.614 371.411 203.387 370.957C202.934 370.276 202.707 369.595 202.707 368.914H200.44V372.773H199.533V364.146H200.44V368.006H202.707C202.707 367.325 202.934 366.644 203.387 365.963C203.841 365.282 204.294 364.828 204.747 364.601C205.428 364.374 206.108 364.146 206.788 364.146C207.468 364.146 208.148 364.147 208.828 364.601ZM208.375 371.638C208.828 371.411 209.282 370.957 209.508 370.276C209.735 369.822 209.962 369.141 209.962 368.46C209.962 367.779 209.735 367.098 209.508 366.644C209.282 366.19 208.828 365.736 208.375 365.282C207.921 365.055 207.241 364.828 206.561 364.828C205.881 364.828 205.428 365.055 204.747 365.282C204.294 365.509 203.841 365.963 203.614 366.644C203.387 367.098 203.16 367.779 203.16 368.46C203.16 369.141 203.387 369.822 203.614 370.276C203.841 370.73 204.294 371.184 204.747 371.638C205.201 372.092 205.881 372.092 206.561 372.092C207.241 372.092 207.921 371.865 208.375 371.638Z" fill="#4F4E4E"/>
<path d="M226.962 364.828H223.561V372.546H222.654V364.828H219.254V364.146H226.735V364.828H226.962Z" fill="#4F4E4E"/>
<path d="M237.843 372.091C237.163 371.637 236.71 371.183 236.256 370.502C235.803 369.821 235.803 369.14 235.803 368.232C235.803 367.324 236.029 366.643 236.256 365.962C236.71 365.281 237.163 364.827 237.843 364.372C238.523 363.918 239.203 363.918 240.11 363.918C240.79 363.918 241.47 364.145 241.924 364.372C242.377 364.6 242.831 365.054 243.284 365.508L242.604 365.962C242.377 365.508 241.924 365.281 241.47 365.054C241.017 364.827 240.564 364.827 239.883 364.827C239.203 364.827 238.523 365.054 238.07 365.281C237.616 365.508 237.163 365.962 236.936 366.643C236.71 367.097 236.483 367.778 236.483 368.459C236.483 369.14 236.71 369.821 236.936 370.275C237.163 370.729 237.616 371.183 238.07 371.637C238.523 371.864 239.203 372.091 239.883 372.091C240.337 372.091 241.017 372.091 241.47 371.864C241.924 371.637 242.377 371.41 242.604 370.956L243.284 371.41C242.831 371.864 242.377 372.318 241.924 372.545C241.47 372.772 240.79 372.999 240.11 372.999C239.203 372.772 238.523 372.545 237.843 372.091Z" fill="#4F4E4E"/>
<path d="M259.835 364.146V372.773H259.154V369.822H256.207C255.981 369.822 255.981 369.822 255.754 369.822L253.713 372.773H252.807L255.074 369.822C254.394 369.595 253.94 369.368 253.487 368.914C253.033 368.46 253.033 367.779 253.033 367.098C253.033 366.189 253.26 365.508 253.94 365.054C254.62 364.6 255.527 364.373 256.434 364.373H259.835V364.146ZM256.434 369.141H259.154V364.827H256.434C254.62 364.827 253.713 365.508 253.713 367.098C253.713 368.46 254.62 369.141 256.434 369.141Z" fill="#4F4E4E"/>
<defs>
<linearGradient id="paint0_linear_2869_20760" x1="90.4255" y1="130.253" x2="90.4255" y2="24.7361" gradientUnits="userSpaceOnUse">
<stop stop-color="#187ABF"/>
<stop offset="0.6872" stop-color="#56A9DE"/>
<stop offset="1" stop-color="#187ABF"/>
</linearGradient>
<linearGradient id="paint1_linear_2869_20760" x1="81.4616" y1="125.389" x2="81.4616" y2="31.4715" gradientUnits="userSpaceOnUse">
<stop stop-color="#187ABF"/>
<stop offset="0.6872" stop-color="#56A9DE"/>
<stop offset="1" stop-color="#187ABF"/>
</linearGradient>
<linearGradient id="paint2_linear_2869_20760" x1="98.9532" y1="133.768" x2="98.9532" y2="18.4225" gradientUnits="userSpaceOnUse">
<stop stop-color="#187ABF"/>
<stop offset="0.6872" stop-color="#56A9DE"/>
<stop offset="1" stop-color="#187ABF"/>
</linearGradient>
<linearGradient id="paint3_linear_2869_20760" x1="107.471" y1="137.361" x2="107.471" y2="12.2986" gradientUnits="userSpaceOnUse">
<stop stop-color="#187ABF"/>
<stop offset="0.6872" stop-color="#56A9DE"/>
<stop offset="1" stop-color="#187ABF"/>
</linearGradient>
<linearGradient id="paint4_linear_2869_20760" x1="115.987" y1="141.401" x2="115.987" y2="6.16912" gradientUnits="userSpaceOnUse">
<stop stop-color="#187ABF"/>
<stop offset="0.6872" stop-color="#56A9DE"/>
<stop offset="1" stop-color="#187ABF"/>
</linearGradient>
<linearGradient id="paint5_linear_2869_20760" x1="124.493" y1="145.519" x2="124.493" y2="0" gradientUnits="userSpaceOnUse">
<stop stop-color="#187ABF"/>
<stop offset="0.6872" stop-color="#56A9DE"/>
<stop offset="1" stop-color="#187ABF"/>
</linearGradient>
<linearGradient id="paint6_linear_2869_20760" x1="163.96" y1="273.935" x2="163.96" y2="185.866" gradientUnits="userSpaceOnUse">
<stop stop-color="#187ABF"/>
<stop offset="0.6872" stop-color="#56A9DE"/>
<stop offset="1" stop-color="#187ABF"/>
</linearGradient>
<linearGradient id="paint7_linear_2869_20760" x1="198.023" y1="273.787" x2="198.023" y2="170.25" gradientUnits="userSpaceOnUse">
<stop stop-color="#187ABF"/>
<stop offset="0.6872" stop-color="#56A9DE"/>
<stop offset="1" stop-color="#187ABF"/>
</linearGradient>
<linearGradient id="paint8_linear_2869_20760" x1="146.92" y1="273.935" x2="146.92" y2="193.653" gradientUnits="userSpaceOnUse">
<stop stop-color="#187ABF"/>
<stop offset="0.6872" stop-color="#56A9DE"/>
<stop offset="1" stop-color="#187ABF"/>
</linearGradient>
<linearGradient id="paint9_linear_2869_20760" x1="180.984" y1="274.084" x2="180.984" y2="178.041" gradientUnits="userSpaceOnUse">
<stop stop-color="#187ABF"/>
<stop offset="0.6872" stop-color="#56A9DE"/>
<stop offset="1" stop-color="#187ABF"/>
</linearGradient>
<linearGradient id="paint10_linear_2869_20760" x1="189.506" y1="274.084" x2="189.506" y2="174.153" gradientUnits="userSpaceOnUse">
<stop stop-color="#187ABF"/>
<stop offset="0.6872" stop-color="#56A9DE"/>
<stop offset="1" stop-color="#187ABF"/>
</linearGradient>
<linearGradient id="paint11_linear_2869_20760" x1="172.477" y1="274.084" x2="172.477" y2="181.965" gradientUnits="userSpaceOnUse">
<stop stop-color="#187ABF"/>
<stop offset="0.6872" stop-color="#56A9DE"/>
<stop offset="1" stop-color="#187ABF"/>
</linearGradient>
<linearGradient id="paint12_linear_2869_20760" x1="138.397" y1="273.936" x2="138.397" y2="197.537" gradientUnits="userSpaceOnUse">
<stop stop-color="#187ABF"/>
<stop offset="0.6872" stop-color="#56A9DE"/>
<stop offset="1" stop-color="#187ABF"/>
</linearGradient>
<linearGradient id="paint13_linear_2869_20760" x1="155.434" y1="274.236" x2="155.434" y2="189.755" gradientUnits="userSpaceOnUse">
<stop stop-color="#187ABF"/>
<stop offset="0.6872" stop-color="#56A9DE"/>
<stop offset="1" stop-color="#187ABF"/>
</linearGradient>
<linearGradient id="paint14_linear_2869_20760" x1="125.389" y1="274.16" x2="125.389" y2="154.342" gradientUnits="userSpaceOnUse">
<stop stop-color="#187ABF"/>
<stop offset="0.6872" stop-color="#56A9DE"/>
<stop offset="1" stop-color="#187ABF"/>
</linearGradient>
<linearGradient id="paint15_linear_2869_20760" x1="116.859" y1="273.936" x2="116.859" y2="150.36" gradientUnits="userSpaceOnUse">
<stop stop-color="#187ABF"/>
<stop offset="0.6872" stop-color="#56A9DE"/>
<stop offset="1" stop-color="#187ABF"/>
</linearGradient>
<linearGradient id="paint16_linear_2869_20760" x1="108.347" y1="274.012" x2="108.347" y2="146.372" gradientUnits="userSpaceOnUse">
<stop stop-color="#187ABF"/>
<stop offset="0.6872" stop-color="#56A9DE"/>
<stop offset="1" stop-color="#187ABF"/>
</linearGradient>
<linearGradient id="paint17_linear_2869_20760" x1="99.8293" y1="274.084" x2="99.8293" y2="142.39" gradientUnits="userSpaceOnUse">
<stop stop-color="#187ABF"/>
<stop offset="0.6872" stop-color="#56A9DE"/>
<stop offset="1" stop-color="#187ABF"/>
</linearGradient>
<linearGradient id="paint18_linear_2869_20760" x1="91.3143" y1="274.16" x2="91.3143" y2="138.393" gradientUnits="userSpaceOnUse">
<stop stop-color="#187ABF"/>
<stop offset="0.6872" stop-color="#56A9DE"/>
<stop offset="1" stop-color="#187ABF"/>
</linearGradient>
<linearGradient id="paint19_linear_2869_20760" x1="82.8013" y1="274.012" x2="82.8013" y2="134.388" gradientUnits="userSpaceOnUse">
<stop stop-color="#187ABF"/>
<stop offset="0.6872" stop-color="#56A9DE"/>
<stop offset="1" stop-color="#187ABF"/>
</linearGradient>
<linearGradient id="paint20_linear_2869_20760" x1="74.2748" y1="273.859" x2="74.2748" y2="130.414" gradientUnits="userSpaceOnUse">
<stop stop-color="#187ABF"/>
<stop offset="0.6872" stop-color="#56A9DE"/>
<stop offset="1" stop-color="#187ABF"/>
</linearGradient>
<linearGradient id="paint21_linear_2869_20760" x1="65.7597" y1="273.935" x2="65.7597" y2="126.409" gradientUnits="userSpaceOnUse">
<stop stop-color="#187ABF"/>
<stop offset="0.6872" stop-color="#56A9DE"/>
<stop offset="1" stop-color="#187ABF"/>
</linearGradient>
<linearGradient id="paint22_linear_2869_20760" x1="172.052" y1="173.807" x2="172.052" y2="92.8596" gradientUnits="userSpaceOnUse">
<stop stop-color="#187ABF"/>
<stop offset="0.6872" stop-color="#56A9DE"/>
<stop offset="1" stop-color="#187ABF"/>
</linearGradient>
<linearGradient id="paint23_linear_2869_20760" x1="181.019" y1="170.214" x2="181.019" y2="99.1455" gradientUnits="userSpaceOnUse">
<stop stop-color="#187ABF"/>
<stop offset="0.6872" stop-color="#56A9DE"/>
<stop offset="1" stop-color="#187ABF"/>
</linearGradient>
<linearGradient id="paint24_linear_2869_20760" x1="163.538" y1="177.848" x2="163.538" y2="86.5597" gradientUnits="userSpaceOnUse">
<stop stop-color="#187ABF"/>
<stop offset="0.6872" stop-color="#56A9DE"/>
<stop offset="1" stop-color="#187ABF"/>
</linearGradient>
<linearGradient id="paint25_linear_2869_20760" x1="155.015" y1="181.664" x2="155.015" y2="80.2509" gradientUnits="userSpaceOnUse">
<stop stop-color="#187ABF"/>
<stop offset="0.6872" stop-color="#56A9DE"/>
<stop offset="1" stop-color="#187ABF"/>
</linearGradient>
<linearGradient id="paint26_linear_2869_20760" x1="146.506" y1="185.481" x2="146.506" y2="73.9383" gradientUnits="userSpaceOnUse">
<stop stop-color="#187ABF"/>
<stop offset="0.6872" stop-color="#56A9DE"/>
<stop offset="1" stop-color="#187ABF"/>
</linearGradient>
<linearGradient id="paint27_linear_2869_20760" x1="137.998" y1="189.746" x2="137.998" y2="67.5843" gradientUnits="userSpaceOnUse">
<stop stop-color="#187ABF"/>
<stop offset="0.6872" stop-color="#56A9DE"/>
<stop offset="1" stop-color="#187ABF"/>
</linearGradient>
<linearGradient id="paint28_linear_2869_20760" x1="151.062" y1="378.308" x2="110.419" y2="308.012" gradientUnits="userSpaceOnUse">
<stop stop-color="#187ABF"/>
<stop offset="0.6872" stop-color="#56A9DE"/>
<stop offset="1" stop-color="#187ABF"/>
</linearGradient>
</defs>
</svg>
