<svg width="216" height="71" viewBox="0 0 216 71" fill="none" xmlns="http://www.w3.org/2000/svg">
<path d="M7.77524 6.40219L7.19447 33.7229L6.4043 7.33708L7.70413 6.40219H7.77524Z" fill="white"/>
<path d="M5.44822 8.14573L4.8635 32.4606L4.07728 9.08062L5.37316 8.14573H5.44822Z" fill="white"/>
<path d="M9.97976 4.7691L9.40689 34.6302L8.62858 5.73948L9.97976 4.7691Z" fill="white"/>
<path d="M12.1883 3.18334L11.6155 35.5611L10.8451 4.14978L12.1883 3.18334Z" fill="white"/>
<path d="M14.3968 1.59759L13.8279 36.6065L13.0575 2.56008L14.3968 1.59759Z" fill="white"/>
<path d="M16.3709 0L15.7901 37.6755L15 0.982222L16.3709 0Z" fill="white"/>
<path d="M26.8499 48.1209L26.2889 70.9211L25.5145 48.7284L26.8499 48.1209Z" fill="white"/>
<path d="M35.7116 44.0777L35.1348 70.8817L34.3485 44.7009L35.7116 44.0777Z" fill="white"/>
<path d="M22.4328 50.1367L21.8639 70.9211L21.0856 50.752L22.4328 50.1367Z" fill="white"/>
<path d="M31.2906 46.0934L30.7099 70.9606L29.9197 46.7206L31.2906 46.0934Z" fill="white"/>
<path d="M33.4991 45.0875L32.9223 70.9606L32.14 45.7068L33.4991 45.0875Z" fill="white"/>
<path d="M29.0662 47.1111L28.4973 70.9606L27.723 47.7225L29.0662 47.1111Z" fill="white"/>
<path d="M20.2283 51.1426L19.6514 70.9211L18.8652 51.7619L20.2283 51.1426Z" fill="white"/>
<path d="M24.6453 49.1268L24.0764 71L23.2981 49.7422L24.6453 49.1268Z" fill="white"/>
<path d="M16.8463 40.5945L16.0601 70.9803L15.4872 39.9594L16.8463 40.5945Z" fill="white"/>
<path d="M14.6299 39.5611L13.8477 70.9211L13.2787 38.926L14.6299 39.5611Z" fill="white"/>
<path d="M12.4214 38.5275L11.6352 70.9408L11.0663 37.8964L12.4214 38.5275Z" fill="white"/>
<path d="M10.205 37.4901L9.42671 70.9606L8.85779 36.8629L10.205 37.4901Z" fill="white"/>
<path d="M7.99646 36.4605L7.2142 70.9803L6.64528 35.8294L7.99646 36.4605Z" fill="white"/>
<path d="M5.79584 35.4349L5.00172 70.9408L4.4249 34.7919L5.79584 35.4349Z" fill="white"/>
<path d="M3.57156 34.3935L2.7893 70.9014L2.22038 33.7624L3.57156 34.3935Z" fill="white"/>
<path d="M1.37094 33.3679L0.576822 70.9211L0 32.7249L1.37094 33.3679Z" fill="white"/>
<path d="M28.9636 25.0447L28.1892 44.9968L27.6084 24.0427L28.9636 25.0447Z" fill="white"/>
<path d="M31.2906 26.6699L30.5162 44.0658L29.9354 25.6679L31.2906 26.6699Z" fill="white"/>
<path d="M26.7471 23.4037L25.9767 46.0421L25.4038 22.4096L26.7471 23.4037Z" fill="white"/>
<path d="M24.5307 21.7667L23.7642 47.0322L23.1953 20.7765L24.5307 21.7667Z" fill="white"/>
<path d="M22.3222 20.1336L21.5518 48.0184L20.9829 19.1435L22.3222 20.1336Z" fill="white"/>
<path d="M20.1295 18.5084L19.3393 49.1229L18.7586 17.4985L20.1295 18.5084Z" fill="white"/>
<path d="M69.4358 36.709H58.3102L56.1886 41.8371H50.5073L61.1825 17.9087H66.6583L77.373 41.8371H71.5534L69.4358 36.709ZM67.6895 32.504L63.8888 23.3445L60.0881 32.504H67.6895ZM101.995 41.8371L97.3721 35.1706H97.0995H92.2716V41.8371H86.7246V17.9087H97.0995C99.2211 17.9087 101.066 18.2638 102.627 18.9699C104.191 19.676 105.392 20.6779 106.238 21.9796C107.083 23.2774 107.506 24.8159 107.506 26.5949C107.506 28.3739 107.079 29.9045 106.222 31.1944C105.365 32.4803 104.152 33.4665 102.575 34.1529L107.948 41.845H101.995V41.8371ZM100.588 23.4983C99.7189 22.7804 98.4546 22.4214 96.7874 22.4214H92.2676V30.7605H96.7874C98.4546 30.7605 99.7189 30.3976 100.588 29.6678C101.453 28.938 101.888 27.9124 101.888 26.591C101.892 25.2458 101.457 24.2123 100.588 23.4983ZM140.543 41.8371L140.507 27.4785L133.455 39.3046H130.954L123.938 27.7862V41.8371H118.734V17.9087H123.321L132.29 32.7801L141.124 17.9087H145.679L145.746 41.8371H140.543ZM163.154 40.6379C161.154 39.5689 159.594 38.0897 158.464 36.212C157.334 34.3304 156.769 32.22 156.769 29.8729C156.769 27.5258 157.334 25.4115 158.464 23.5338C159.594 21.6522 161.158 20.1769 163.154 19.1079C165.149 18.0389 167.393 17.5024 169.882 17.5024C172.371 17.5024 174.607 18.0389 176.59 19.1079C178.578 20.1809 180.138 21.6562 181.28 23.5338C182.422 25.4154 182.991 27.5298 182.991 29.8729C182.991 32.22 182.422 34.3343 181.28 36.212C180.138 38.0936 178.574 39.5689 176.59 40.6379C174.603 41.7109 172.367 42.2434 169.882 42.2434C167.393 42.2473 165.153 41.7109 163.154 40.6379ZM173.718 36.5552C174.86 35.9043 175.757 35.001 176.405 33.8373C177.056 32.6736 177.38 31.3522 177.38 29.8729C177.38 28.3937 177.056 27.0683 176.405 25.9085C175.753 24.7448 174.86 23.8415 173.718 23.1906C172.576 22.5398 171.3 22.2163 169.882 22.2163C168.467 22.2163 167.187 22.5398 166.046 23.1906C164.904 23.8415 164.007 24.7448 163.359 25.9085C162.707 27.0722 162.383 28.3937 162.383 29.8729C162.383 31.3561 162.707 32.6776 163.359 33.8373C164.011 35.001 164.904 35.9043 166.046 36.5552C167.187 37.206 168.463 37.5295 169.882 37.5295C171.296 37.5295 172.576 37.2021 173.718 36.5552ZM216 17.9087V41.8371H211.445L199.497 27.3089V41.8371H194.021V17.9087H198.608L210.524 32.4369V17.9087H216Z" fill="white"/>
<path d="M86.855 47.9948H90.3199C91.1891 47.9948 91.9595 48.1683 92.6351 48.5115C93.3067 48.8547 93.8322 49.3399 94.2035 49.9592C94.5749 50.5825 94.7606 51.2925 94.7606 52.1012C94.7606 52.9059 94.5749 53.6199 94.2035 54.2431C93.8322 54.8664 93.3106 55.3476 92.6351 55.6908C91.9634 56.034 91.1891 56.2076 90.3199 56.2076H86.855V47.9948ZM90.2488 55.1859C90.9125 55.1859 91.5012 55.0557 92.0029 54.7993C92.5086 54.5429 92.8958 54.18 93.1724 53.7145C93.445 53.2491 93.5833 52.7126 93.5833 52.1012C93.5833 51.4898 93.445 50.9533 93.1724 50.4878C92.8998 50.0223 92.5086 49.6594 92.0029 49.403C91.4972 49.1466 90.9125 49.0164 90.2488 49.0164H88.0284V55.1859H90.2488ZM102.52 55.1859V56.2076H96.5543V47.9987H102.358V49.0204H97.7316V51.541H101.852V52.539H97.7316V55.1898H102.52V55.1859ZM111.445 47.9948L107.838 56.2036H106.676L103.057 47.9948H104.326L107.285 54.7362L110.268 47.9948H111.445ZM118.458 55.1859V56.2076H112.492V47.9987H118.296V49.0204H113.665V51.541H117.786V52.539H113.665V55.1898H118.458V55.1859ZM120.362 47.9948H121.535V55.1859H125.988V56.2076H120.362V47.9948ZM128.651 55.7539C127.987 55.391 127.462 54.8901 127.082 54.2471C126.703 53.608 126.513 52.8901 126.513 52.1012C126.513 51.3122 126.703 50.5983 127.082 49.9553C127.462 49.3162 127.983 48.8113 128.651 48.4484C129.315 48.0855 130.065 47.9041 130.895 47.9041C131.717 47.9041 132.459 48.0855 133.127 48.4484C133.791 48.8113 134.312 49.3123 134.688 49.9513C135.063 50.5904 135.253 51.3044 135.253 52.1012C135.253 52.898 135.063 53.6159 134.688 54.251C134.312 54.8901 133.791 55.3871 133.127 55.7539C132.463 56.1168 131.717 56.2983 130.895 56.2983C130.065 56.2983 129.319 56.1168 128.651 55.7539ZM132.523 54.8427C133.005 54.5705 133.384 54.1918 133.661 53.7106C133.937 53.2293 134.079 52.6929 134.079 52.0972C134.079 51.5016 133.941 50.9651 133.661 50.4839C133.384 50.0026 133.005 49.6279 132.523 49.3517C132.041 49.0796 131.499 48.9415 130.895 48.9415C130.29 48.9415 129.745 49.0796 129.255 49.3517C128.765 49.6239 128.382 50.0026 128.106 50.4839C127.829 50.9651 127.687 51.5016 127.687 52.0972C127.687 52.6929 127.825 53.2293 128.106 53.7106C128.382 54.1918 128.765 54.5705 129.255 54.8427C129.745 55.1149 130.29 55.253 130.895 55.253C131.499 55.253 132.041 55.1188 132.523 54.8427ZM142.767 48.76C143.38 49.2689 143.684 49.9671 143.684 50.8586C143.684 51.7501 143.38 52.4483 142.767 52.9572C142.155 53.466 141.317 53.7185 140.254 53.7185H138.224V56.2036H137.05V47.9948H140.258C141.321 47.9948 142.159 48.2512 142.767 48.76ZM141.922 52.2235C142.313 51.9079 142.51 51.4503 142.51 50.8586C142.51 50.263 142.313 49.8093 141.922 49.4938C141.531 49.1782 140.962 49.0204 140.219 49.0204H138.224V52.7008H140.219C140.966 52.6968 141.531 52.539 141.922 52.2235ZM153.035 56.2036L153.024 50.2235L150.053 55.2056H149.511L146.54 50.259V56.2036H145.414V47.9948H146.378L149.808 53.7658L153.189 47.9948H154.154L154.165 56.2036H153.035ZM162.592 55.1859V56.2076H156.627V47.9987H162.43V49.0204H157.804V51.541H161.925V52.539H157.804V55.1898H162.592V55.1859ZM171.565 47.9948V56.2036H170.601L165.666 50.0815V56.2036H164.493V47.9948H165.457L170.391 54.1169V47.9948H171.565ZM175.666 49.0164H172.849V47.9948H179.648V49.0164H176.831V56.2036H175.67V49.0164H175.666Z" fill="white"/>
<path d="M215.747 51.9078H189.355V53.6632H215.747V51.9078Z" fill="white"/>
<path d="M75.876 51.9078H49.4844V53.6632H75.876V51.9078Z" fill="white"/>
<path d="M55.6319 64.9213V70.4004H55.1498V65.7615L52.7635 69.6944H52.5225L50.1481 65.7694V70.3965H49.6621V64.9174H50.1757L52.6569 69.0632L55.1459 64.9174H55.6319V64.9213Z" fill="white"/>
<path d="M67.8359 67.7851H63.1186C63.1344 68.2111 63.2411 68.5898 63.4465 68.9251C63.648 69.2564 63.9246 69.5128 64.2722 69.6943C64.6199 69.8757 65.011 69.9665 65.4456 69.9665C65.8012 69.9665 66.1331 69.8994 66.4373 69.7732C66.7415 69.643 66.9943 69.4537 67.1998 69.2012L67.504 69.5483C67.267 69.8363 66.9667 70.0572 66.6072 70.211C66.2476 70.3649 65.8565 70.4438 65.4338 70.4438C64.8886 70.4438 64.4026 70.3254 63.972 70.0888C63.5453 69.8521 63.2095 69.5207 62.9685 69.1026C62.7275 68.6845 62.605 68.2032 62.605 67.6667C62.605 67.1342 62.7196 66.6569 62.9448 66.2348C63.1739 65.8127 63.486 65.4814 63.885 65.2447C64.2841 65.008 64.7345 64.8857 65.2283 64.8857C65.7261 64.8857 66.1726 65.0041 66.5677 65.2368C66.9627 65.4696 67.2749 65.797 67.504 66.219C67.7331 66.6372 67.8438 67.1145 67.8438 67.647L67.8359 67.7851ZM64.1893 65.5997C63.8811 65.7733 63.6322 66.0139 63.4505 66.3216C63.2648 66.6332 63.1581 66.9843 63.1304 67.3748H67.3341C67.3144 66.9843 67.2077 66.6332 67.0181 66.3255C66.8284 66.0179 66.5795 65.7772 66.2713 65.6037C65.9632 65.4301 65.6155 65.3394 65.2323 65.3394C64.8411 65.3394 64.4974 65.4262 64.1893 65.5997Z" fill="white"/>
<path d="M78.7521 64.9213V70.4004H78.2266V68.0415C77.5747 68.3413 76.9228 68.4912 76.2709 68.4912C75.6269 68.4912 75.1212 68.3452 74.7538 68.0494C74.3864 67.7575 74.2007 67.3236 74.2007 66.7476V64.9213H74.7261V66.7161C74.7261 67.1421 74.8684 67.4735 75.1568 67.7022C75.4452 67.935 75.8403 68.0494 76.346 68.0494C76.9189 68.0494 77.5471 67.9074 78.2266 67.6194V64.9213H78.7521Z" fill="white"/>
<path d="M89.945 65.3946H87.7997V70.4004H87.2742V65.3946H85.1289V64.9213H89.941V65.3946H89.945Z" fill="white"/>
<path d="M100.043 67.3591C100.399 67.651 100.58 68.0731 100.58 68.6332C100.58 69.2131 100.391 69.6588 100.011 69.9665C99.6321 70.2742 99.0869 70.4241 98.3718 70.4162L96.3213 70.3965V64.9174H96.8468V66.8897L98.4863 66.9094C99.1659 66.9212 99.6874 67.0711 100.043 67.3591ZM99.6242 69.6628C99.9126 69.43 100.055 69.0908 100.055 68.6332C100.055 68.1914 99.9165 67.864 99.636 67.651C99.3555 67.438 98.9288 67.3236 98.352 67.3118L96.8507 67.2999V69.9744L98.352 69.9941C98.913 70.006 99.3358 69.8955 99.6242 69.6628ZM101.588 64.9213H102.113V70.4004H101.588V64.9213Z" fill="white"/>
<path d="M118.371 70.0848C117.952 69.8482 117.62 69.5168 117.383 69.0947C117.146 68.6727 117.028 68.1954 117.028 67.6628C117.028 67.1224 117.146 66.6451 117.383 66.2191C117.62 65.797 117.952 65.4656 118.371 65.2329C118.79 65.0002 119.268 64.8818 119.801 64.8818C120.244 64.8818 120.643 64.9686 121.006 65.1382C121.366 65.3118 121.658 65.5603 121.883 65.8877L121.496 66.1717C121.299 65.8996 121.058 65.6944 120.765 65.5564C120.473 65.4183 120.153 65.3512 119.805 65.3512C119.379 65.3512 118.995 65.4459 118.656 65.6392C118.316 65.8325 118.051 66.1047 117.858 66.4518C117.664 66.8029 117.569 67.2052 117.569 67.6589C117.569 68.1125 117.664 68.5149 117.858 68.8659C118.051 69.217 118.316 69.4853 118.656 69.6785C118.995 69.8718 119.379 69.9665 119.805 69.9665C120.157 69.9665 120.477 69.8994 120.765 69.7614C121.058 69.6233 121.299 69.4221 121.496 69.146L121.883 69.43C121.658 69.7574 121.366 70.0099 121.006 70.1795C120.647 70.3531 120.244 70.4359 119.801 70.4359C119.268 70.4399 118.79 70.3215 118.371 70.0848Z" fill="white"/>
<path d="M132.582 65.3473C132.977 65.5761 133.289 65.8917 133.51 66.298C133.736 66.7043 133.846 67.1737 133.846 67.7023C133.846 68.2348 133.732 68.7082 133.506 69.1224C133.277 69.5405 132.961 69.864 132.55 70.0967C132.139 70.3294 131.673 70.4478 131.148 70.4478C130.543 70.4478 130.034 70.3018 129.607 70.006C129.184 69.7141 128.86 69.2959 128.639 68.7594C128.418 68.219 128.307 67.5918 128.307 66.8699C128.307 66.0534 128.406 65.3749 128.607 64.8345C128.809 64.2941 129.109 63.872 129.512 63.5604C129.915 63.2488 130.433 63.016 131.061 62.8622L133.491 62.2744L133.574 62.7675L131.262 63.3119C130.693 63.446 130.235 63.6393 129.88 63.8957C129.524 64.1521 129.259 64.4992 129.085 64.941C128.912 65.3828 128.821 65.943 128.813 66.6293C128.995 66.1244 129.299 65.7299 129.725 65.438C130.152 65.1461 130.65 65.0041 131.219 65.0041C131.733 65.0041 132.187 65.1185 132.582 65.3473ZM132.274 69.7062C132.602 69.5089 132.859 69.2407 133.04 68.8936C133.222 68.5464 133.313 68.1559 133.313 67.7141C133.313 67.2723 133.222 66.8857 133.04 66.5425C132.859 66.2033 132.606 65.939 132.278 65.7536C131.954 65.5682 131.578 65.4775 131.16 65.4775C130.741 65.4775 130.366 65.5682 130.034 65.7536C129.706 65.939 129.449 66.2033 129.267 66.5425C129.085 66.8818 128.995 67.2723 128.995 67.7141C128.995 68.1559 129.085 68.5464 129.267 68.8936C129.449 69.2407 129.706 69.5129 130.034 69.7062C130.362 69.9034 130.737 69.9981 131.16 69.9981C131.575 69.9981 131.946 69.9034 132.274 69.7062Z" fill="white"/>
<path d="M144.549 67.3591C144.905 67.651 145.087 68.0731 145.087 68.6332C145.087 69.2131 144.897 69.6588 144.518 69.9665C144.138 70.2742 143.593 70.4241 142.878 70.4162L140.828 70.3965V64.9174H141.353V66.8897L142.993 66.9094C143.672 66.9212 144.19 67.0711 144.549 67.3591ZM144.127 69.6628C144.415 69.43 144.557 69.0908 144.557 68.6332C144.557 68.1914 144.419 67.864 144.138 67.651C143.858 67.438 143.431 67.3236 142.854 67.3118L141.353 67.2999V69.9744L142.854 69.9941C143.415 70.006 143.842 69.8955 144.127 69.6628ZM146.094 64.9213H146.619V70.4004H146.094V64.9213Z" fill="white"/>
<path d="M158.586 68.929C158.586 69.4063 158.413 69.7692 158.065 70.0217C157.717 70.2742 157.2 70.4004 156.504 70.4004H154.13V64.9213H156.441C157.05 64.9213 157.528 65.0435 157.875 65.2842C158.223 65.5248 158.397 65.8719 158.397 66.3177C158.397 66.6411 158.306 66.9094 158.128 67.1224C157.95 67.3354 157.697 67.4892 157.377 67.58C158.183 67.7141 158.586 68.1677 158.586 68.929ZM154.647 67.4182H156.413C156.884 67.4182 157.243 67.3275 157.496 67.15C157.749 66.9725 157.875 66.7161 157.875 66.3808C157.875 66.0376 157.749 65.7812 157.504 65.6116C157.255 65.438 156.891 65.3552 156.417 65.3552H154.651V67.4182H154.647ZM158.061 68.9093C158.061 68.5385 157.942 68.2663 157.705 68.0928C157.468 67.9192 157.093 67.8324 156.579 67.8324H154.643V69.9744H156.492C157.539 69.9665 158.061 69.6154 158.061 68.9093Z" fill="white"/>
<path d="M169.096 65.3987C169.459 65.7458 169.641 66.2546 169.641 66.9252V70.4005H169.135V69.4261C168.962 69.7496 168.705 69.9981 168.369 70.1756C168.033 70.3531 167.63 70.4439 167.16 70.4439C166.552 70.4439 166.07 70.3019 165.714 70.0139C165.358 69.7259 165.185 69.3512 165.185 68.8818C165.185 68.4281 165.347 68.0573 165.674 67.7733C165.998 67.4893 166.52 67.3473 167.235 67.3473H169.116V66.9055C169.116 66.3966 168.977 66.0061 168.701 65.7418C168.424 65.4775 168.021 65.3434 167.488 65.3434C167.124 65.3434 166.777 65.4065 166.441 65.5328C166.109 65.659 165.825 65.8247 165.595 66.0377L165.335 65.659C165.607 65.4144 165.939 65.2251 166.322 65.087C166.706 64.949 167.109 64.8819 167.531 64.8819C168.211 64.878 168.732 65.0515 169.096 65.3987ZM168.397 69.6944C168.717 69.4853 168.954 69.1816 169.116 68.7832V67.7536H167.247C166.706 67.7536 166.318 67.8522 166.074 68.0455C165.833 68.2427 165.71 68.511 165.71 68.8542C165.71 69.2092 165.844 69.4932 166.109 69.6983C166.374 69.9034 166.749 70.006 167.235 70.006C167.693 70.0099 168.081 69.9074 168.397 69.6944Z" fill="white"/>
<path d="M182.999 65.229C183.406 65.4617 183.726 65.793 183.955 66.2151C184.188 66.6372 184.303 67.1185 184.303 67.6589C184.303 68.1914 184.188 68.6687 183.955 69.0908C183.722 69.5129 183.406 69.8442 182.999 70.0809C182.592 70.3176 182.134 70.4359 181.624 70.4359C181.134 70.4359 180.692 70.3255 180.293 70.1085C179.898 69.8916 179.582 69.5878 179.348 69.1973C179.115 68.8068 178.981 68.3571 178.953 67.8522H177.555V70.3925H177.029V64.9134H177.555V67.367H178.953C178.997 66.8778 179.135 66.4439 179.372 66.0652C179.609 65.6865 179.925 65.3946 180.316 65.1856C180.708 64.9765 181.142 64.87 181.62 64.87C182.134 64.8779 182.592 64.9962 182.999 65.229ZM182.726 69.6864C183.054 69.4892 183.311 69.217 183.497 68.862C183.683 68.507 183.777 68.1086 183.777 67.6589C183.777 67.2052 183.683 66.8029 183.497 66.4518C183.311 66.1007 183.054 65.8325 182.726 65.6392C182.398 65.4459 182.027 65.3512 181.624 65.3512C181.217 65.3512 180.85 65.4459 180.522 65.6392C180.194 65.8325 179.933 66.1047 179.751 66.4518C179.566 66.8029 179.471 67.2052 179.471 67.6589C179.471 68.1046 179.566 68.507 179.751 68.862C179.937 69.2131 180.194 69.4892 180.522 69.6864C180.85 69.8837 181.217 69.9783 181.624 69.9783C182.031 69.9783 182.398 69.8797 182.726 69.6864Z" fill="white"/>
<path d="M194.737 65.3946H192.592V70.4004H192.066V65.3946H189.921V64.9213H194.737V65.3946Z" fill="white"/>
<path d="M201.655 70.0848C201.236 69.8482 200.904 69.5168 200.667 69.0947C200.43 68.6727 200.312 68.1954 200.312 67.6628C200.312 67.1224 200.43 66.6451 200.667 66.2191C200.904 65.797 201.236 65.4656 201.655 65.2329C202.074 65.0002 202.552 64.8818 203.085 64.8818C203.528 64.8818 203.927 64.9686 204.29 65.1382C204.65 65.3118 204.942 65.5603 205.167 65.8877L204.78 66.1717C204.582 65.8996 204.341 65.6944 204.049 65.5564C203.757 65.4183 203.437 65.3512 203.089 65.3512C202.662 65.3512 202.279 65.4459 201.939 65.6392C201.599 65.8325 201.335 66.1047 201.141 66.4518C200.948 66.8029 200.853 67.2052 200.853 67.6589C200.853 68.1125 200.948 68.5149 201.141 68.8659C201.335 69.217 201.599 69.4853 201.939 69.6785C202.279 69.8718 202.662 69.9665 203.089 69.9665C203.441 69.9665 203.761 69.8994 204.049 69.7614C204.341 69.6233 204.582 69.4221 204.78 69.146L205.167 69.43C204.942 69.7574 204.65 70.0099 204.29 70.1795C203.93 70.3531 203.528 70.4359 203.085 70.4359C202.552 70.4399 202.074 70.3215 201.655 70.0848Z" fill="white"/>
<path d="M215.819 64.9213V70.4004H215.337V68.5109H213.507C213.381 68.5109 213.29 68.507 213.235 68.4991L211.88 70.4004H211.303L212.721 68.4399C212.275 68.3413 211.931 68.148 211.69 67.864C211.453 67.576 211.334 67.2052 211.334 66.7516C211.334 66.152 211.536 65.6944 211.939 65.3867C212.342 65.079 212.895 64.9252 213.594 64.9252H215.819V64.9213ZM213.559 68.1125H215.337V65.3828H213.622C212.445 65.3828 211.856 65.8443 211.856 66.7674C211.86 67.6628 212.425 68.1125 213.559 68.1125Z" fill="white"/>
</svg>
