<svg width="40" height="40" viewBox="0 0 40 40" fill="white" xmlns="http://www.w3.org/2000/svg">
    <path d="M7.50266 5.00314C7.28932 5.00314 7.07599 4.92148 6.91266 4.75981L4.16932 2.01481L1.42599 4.75981C1.10099 5.08481 0.572656 5.08481 0.247656 4.75981C-0.0773437 4.43481 -0.0773437 3.90648 0.247656 3.58148L3.58099 0.248145C3.90599 -0.0768555 4.43432 -0.0768555 4.75932 0.248145L8.09266 3.58148C8.41766 3.90648 8.41766 4.43481 8.09266 4.75981C7.92932 4.92148 7.71599 5.00314 7.50266 5.00314Z"
    />
    <path d="M35.8338 39.9999C35.6204 39.9999 35.4071 39.9182 35.2438 39.7565C34.9187 39.4315 34.9187 38.9032 35.2438 38.5782L37.9871 35.8349L35.2438 33.0915C34.9187 32.7665 34.9187 32.2382 35.2438 31.9132C35.5688 31.5882 36.0971 31.5882 36.4221 31.9132L39.7554 35.2465C40.0804 35.5715 40.0804 36.0999 39.7554 36.4249L36.4221 39.7582C36.2604 39.9182 36.0471 39.9999 35.8338 39.9999Z"
    />
    <path d="M4.16536 40.0001C3.70536 40.0001 3.33203 39.6267 3.33203 39.1667V1.25008C3.33203 0.790081 3.70536 0.416748 4.16536 0.416748C4.62536 0.416748 4.9987 0.790081 4.9987 1.25008V39.1667C4.9987 39.6267 4.62536 40.0001 4.16536 40.0001Z"
    />
    <path d="M38.75 36.6667H0.833333C0.373333 36.6667 0 36.2933 0 35.8333C0 35.3733 0.373333 35 0.833333 35H38.75C39.21 35 39.5833 35.3733 39.5833 35.8333C39.5833 36.2933 39.21 36.6667 38.75 36.6667Z"
    />
    <path d="M21.6667 16.6667C21.565 16.6667 21.4633 16.6484 21.3667 16.6117L10.5333 12.4451C10.2117 12.3217 10 12.0117 10 11.6667C10 11.3217 10.2117 11.0117 10.5333 10.8884L21.3667 6.72175C21.5583 6.64841 21.7733 6.64841 21.965 6.72175L32.7983 10.8884C33.1217 11.0117 33.3333 11.3217 33.3333 11.6667C33.3333 12.0117 33.1217 12.3217 32.8 12.4451L21.9667 16.6117C21.87 16.6484 21.7683 16.6667 21.6667 16.6667ZM13.155 11.6667L21.6667 14.9401L30.1783 11.6667L21.6667 8.39341L13.155 11.6667Z"
    />
    <path d="M21.6667 29.9999C21.565 29.9999 21.4633 29.9816 21.3667 29.9449L10.5333 25.7783C10.2117 25.6549 10 25.3449 10 24.9999V11.6666C10 11.2066 10.3733 10.8333 10.8333 10.8333C11.2933 10.8333 11.6667 11.2066 11.6667 11.6666V24.4283L21.6667 28.2749L31.6667 24.4283V11.6666C31.6667 11.2066 32.04 10.8333 32.5 10.8333C32.96 10.8333 33.3333 11.2066 33.3333 11.6666V24.9999C33.3333 25.3449 33.1217 25.6549 32.8 25.7783L21.9667 29.9449C21.87 29.9816 21.7683 29.9999 21.6667 29.9999Z"
    />
    <path d="M21.6654 30C21.2054 30 20.832 29.6267 20.832 29.1667V15.8333C20.832 15.3733 21.2054 15 21.6654 15C22.1254 15 22.4987 15.3733 22.4987 15.8333V29.1667C22.4987 29.6267 22.1254 30 21.6654 30Z"
    />
</svg>
