<svg width="32" height="40" viewBox="0 0 32 40" fill="black" xmlns="http://www.w3.org/2000/svg">
<path d="M9.3328 9.3335H11.9995C12.3676 9.3335 12.6661 9.035 12.6661 8.66683V6.00016C12.6661 5.632 12.3676 5.3335 11.9995 5.3335H9.3328C8.96464 5.3335 8.66614 5.632 8.66614 6.00016V8.66683C8.66614 9.035 8.96464 9.3335 9.3328 9.3335ZM9.99947 6.66683H11.3328V8.00016H9.99947V6.66683Z" />
<path d="M14.6669 9.33325H17.3336C17.7017 9.33325 18.0002 9.03475 18.0002 8.66658V5.99992C18.0002 5.63175 17.7017 5.33325 17.3336 5.33325H14.6669C14.2987 5.33325 14.0002 5.63175 14.0002 5.99992V8.66658C14.0002 9.03475 14.2987 9.33325 14.6669 9.33325ZM15.3336 6.66659H16.6669V7.99992H15.3336V6.66659Z" />
<path d="M19.9988 9.33325H22.6655C23.0337 9.33325 23.3322 9.03475 23.3322 8.66658V5.99992C23.3322 5.63175 23.0337 5.33325 22.6655 5.33325H19.9988C19.6307 5.33325 19.3322 5.63175 19.3322 5.99992V8.66658C19.3322 9.03475 19.6307 9.33325 19.9988 9.33325ZM20.6655 6.66659H21.9988V7.99992H20.6655V6.66659Z" />
<path d="M9.3328 14.6665H11.9995C12.3676 14.6665 12.6661 14.368 12.6661 13.9998V11.3332C12.6661 10.965 12.3676 10.6665 11.9995 10.6665H9.3328C8.96464 10.6665 8.66614 10.965 8.66614 11.3332V13.9998C8.66614 14.368 8.96464 14.6665 9.3328 14.6665ZM9.99947 11.9998H11.3328V13.3332H9.99947V11.9998Z" />
<path d="M14.6669 14.6667H17.3336C17.7017 14.6667 18.0002 14.3682 18.0002 14.0001V11.3334C18.0002 10.9652 17.7017 10.6667 17.3336 10.6667H14.6669C14.2987 10.6667 14.0002 10.9652 14.0002 11.3334V14.0001C14.0002 14.3682 14.2987 14.6667 14.6669 14.6667ZM15.3336 12.0001H16.6669V13.3334H15.3336V12.0001Z" />
<path d="M19.9988 14.6667H22.6655C23.0337 14.6667 23.3322 14.3682 23.3322 14.0001V11.3334C23.3322 10.9652 23.0337 10.6667 22.6655 10.6667H19.9988C19.6307 10.6667 19.3322 10.9652 19.3322 11.3334V14.0001C19.3322 14.3682 19.6307 14.6667 19.9988 14.6667ZM20.6655 12.0001H21.9988V13.3334H20.6655V12.0001Z" />
<path d="M9.3328 20H11.9995C12.3676 20 12.6661 19.7015 12.6661 19.3333V16.6667C12.6661 16.2985 12.3676 16 11.9995 16H9.3328C8.96464 16 8.66614 16.2985 8.66614 16.6667V19.3333C8.66614 19.7015 8.96464 20 9.3328 20ZM9.99947 17.3333H11.3328V18.6667H9.99947V17.3333Z" />
<path d="M14.6669 20H17.3336C17.7017 20 18.0002 19.7015 18.0002 19.3333V16.6667C18.0002 16.2985 17.7017 16 17.3336 16H14.6669C14.2987 16 14.0002 16.2985 14.0002 16.6667V19.3333C14.0002 19.7015 14.2987 20 14.6669 20ZM15.3336 17.3333H16.6669V18.6667H15.3336V17.3333Z" />
<path d="M19.9988 20H22.6655C23.0337 20 23.3322 19.7015 23.3322 19.3333V16.6667C23.3322 16.2985 23.0337 16 22.6655 16H19.9988C19.6307 16 19.3322 16.2985 19.3322 16.6667V19.3333C19.3322 19.7015 19.6307 20 19.9988 20ZM20.6655 17.3333H21.9988V18.6667H20.6655V17.3333Z" />
<path d="M9.3328 25.3335H11.9995C12.3676 25.3335 12.6661 25.035 12.6661 24.6668V22.0002C12.6661 21.632 12.3676 21.3335 11.9995 21.3335H9.3328C8.96464 21.3335 8.66614 21.632 8.66614 22.0002V24.6668C8.66614 25.035 8.96464 25.3335 9.3328 25.3335ZM9.99947 22.6668H11.3328V24.0002H9.99947V22.6668Z" />
<path d="M14.6669 25.3333H17.3336C17.7017 25.3333 18.0002 25.0348 18.0002 24.6666V21.9999C18.0002 21.6318 17.7017 21.3333 17.3336 21.3333H14.6669C14.2987 21.3333 14.0002 21.6318 14.0002 21.9999V24.6666C14.0002 25.0348 14.2987 25.3333 14.6669 25.3333ZM15.3336 22.6666H16.6669V23.9999H15.3336V22.6666Z" />
<path d="M19.9988 25.3333H22.6655C23.0337 25.3333 23.3322 25.0348 23.3322 24.6666V21.9999C23.3322 21.6318 23.0337 21.3333 22.6655 21.3333H19.9988C19.6307 21.3333 19.3322 21.6318 19.3322 21.9999V24.6666C19.3322 25.0348 19.6307 25.3333 19.9988 25.3333ZM20.6655 22.6666H21.9988V23.9999H20.6655V22.6666Z" />
<path d="M9.3328 30.6665H11.9995C12.3676 30.6665 12.6661 30.368 12.6661 29.9998V27.3332C12.6661 26.965 12.3676 26.6665 11.9995 26.6665H9.3328C8.96464 26.6665 8.66614 26.965 8.66614 27.3332V29.9998C8.66614 30.368 8.96464 30.6665 9.3328 30.6665ZM9.99947 27.9998H11.3328V29.3332H9.99947V27.9998Z" />
<path d="M14.6669 30.6667H17.3336C17.7017 30.6667 18.0002 30.3682 18.0002 30.0001V27.3334C18.0002 26.9652 17.7017 26.6667 17.3336 26.6667H14.6669C14.2987 26.6667 14.0002 26.9652 14.0002 27.3334V30.0001C14.0002 30.3682 14.2987 30.6667 14.6669 30.6667ZM15.3336 28.0001H16.6669V29.3334H15.3336V28.0001Z" />
<path d="M19.9988 30.6667H22.6655C23.0337 30.6667 23.3322 30.3682 23.3322 30.0001V27.3334C23.3322 26.9652 23.0337 26.6667 22.6655 26.6667H19.9988C19.6307 26.6667 19.3322 26.9652 19.3322 27.3334V30.0001C19.3322 30.3682 19.6307 30.6667 19.9988 30.6667ZM20.6655 28.0001H21.9988V29.3334H20.6655V28.0001Z" />
<path d="M26.0001 38.6667V4H26.6668C27.035 4 27.3335 3.7015 27.3335 3.33333V0.666667C27.3335 0.2985 27.035 0 26.6668 0H5.33346C4.96529 0 4.66679 0.2985 4.66679 0.666667V3.33333C4.66679 3.7015 4.96529 4 5.33346 4H6.00012V38.6667H0.00012207V40H32.0001V38.6667H26.0001ZM6.00012 1.33333H26.0001V2.66667H6.00012V1.33333ZM15.3335 38.6667H12.6668V33.3333H15.3335V38.6667ZM19.3335 38.6667H16.6668V33.3333H19.3335V38.6667ZM24.6668 38.6667H20.6668V32.6667C20.6668 32.2985 20.3683 32 20.0001 32H12.0001C11.632 32 11.3335 32.2985 11.3335 32.6667V38.6667H7.33346V4H24.6668V38.6667Z" />
</svg>
