<svg width="40" height="40" viewBox="0 0 40 40" fill="none" xmlns="http://www.w3.org/2000/svg">
<path d="M20 40C8.97156 40 0 31.0284 0 20C0 8.97156 8.97156 0 20 0C31.0284 0 40 8.97156 40 20C40 31.0284 31.0284 40 20 40ZM20 2.5C10.35 2.5 2.5 10.35 2.5 20C2.5 29.65 10.35 37.5 20 37.5C29.65 37.5 37.5 29.65 37.5 20C37.5 10.35 29.65 2.5 20 2.5Z" fill="white"/>
<path d="M13.8137 27.4366C13.4935 27.4366 13.1734 27.3152 12.9302 27.0701C12.4419 26.5818 12.4419 25.7902 12.9302 25.3019L25.3051 12.9268C25.7936 12.4385 26.5853 12.4385 27.0735 12.9268C27.5618 13.415 27.5618 14.2067 27.0735 14.6953L14.6984 27.0701C14.4518 27.3152 14.132 27.4366 13.8137 27.4366Z" fill="white"/>
<path d="M26.1865 27.4365C25.8667 27.4365 25.5466 27.315 25.3033 27.07L12.9285 14.6966C12.4399 14.2084 12.4399 13.4167 12.9285 12.9285C13.4167 12.4399 14.2084 12.4399 14.6966 12.9285L27.0715 25.3033C27.5601 25.7916 27.5601 26.5832 27.0715 27.0715C26.8268 27.315 26.5066 27.4365 26.1865 27.4365Z" fill="white"/>
</svg>
