<svg width="56" height="56" viewBox="0 0 56 56" fill="none" xmlns="http://www.w3.org/2000/svg">
<path d="M47.7197 44.9384C47.6048 37.9132 40.422 35.8376 35.1772 34.3221C34.5653 34.1453 33.9768 33.9752 33.4253 33.8054V30.9073C34.4976 30.2352 35.4371 29.3702 36.195 28.3613H39.3899C40.9533 28.3613 42.2253 27.0893 42.2253 25.5259V22.0936C42.4148 21.6518 42.5201 21.1655 42.5201 20.655V19.5875C42.5201 19.0774 42.4148 18.5915 42.2253 18.15V16.3793C42.2253 8.53541 35.8439 2.15381 28.0001 2.15381C20.1577 2.15381 13.7776 8.53541 13.7776 16.3794V18.0994C13.7776 18.113 13.7792 18.126 13.7797 18.1394C13.5872 18.5838 13.48 19.0733 13.48 19.5876V20.6551C13.48 22.673 15.1204 24.3147 17.1368 24.3147H17.9711C18.549 27.086 20.2503 29.4495 22.5748 30.9068V33.8054C22.0232 33.9752 21.4348 34.1452 20.8229 34.3221C15.5781 35.8376 8.39527 37.9133 8.28037 44.9384C8.28027 44.944 8.28027 44.9494 8.28027 44.955V52.8365C8.28027 53.3941 8.73238 53.8461 9.28989 53.8461H12.2832C12.8407 53.8461 13.2928 53.3941 13.2928 52.8365C13.2928 52.2789 12.8407 51.8269 12.2832 51.8269H10.2994V44.9634C10.3419 42.5123 11.4678 40.6749 13.8426 39.1812C15.4096 38.1955 17.3254 37.4932 19.2137 36.9057L21.6531 41.6584C21.925 42.1881 22.6211 42.3682 23.1158 42.0344L24.2035 41.3007L25.1373 44.8104L23.5373 51.8268H21.3493C20.7918 51.8268 20.3397 52.2788 20.3397 52.8364C20.3397 53.394 20.7918 53.846 21.3493 53.846H46.7102C47.2677 53.846 47.7198 53.394 47.7198 52.8364V44.9549C47.7198 44.9494 47.7198 44.944 47.7197 44.9384ZM34.6167 36.2619C34.6832 36.2811 34.7509 36.3007 34.8179 36.3201L33.0726 39.724L29.8064 37.5215L32.5738 35.6548C33.2168 35.8571 33.9005 36.0549 34.6167 36.2619ZM28.0008 38.7394L30.0253 40.1046L29.0468 43.7822H26.9533L25.9752 40.1057L28.0008 38.7394ZM28.0006 36.3039L24.5939 34.0067V31.8812C25.6602 32.2583 26.8062 32.4652 28 32.4652C29.1936 32.4652 30.3399 32.259 31.406 31.8819V34.0067L28.0006 36.3039ZM36.2253 16.5641C36.2115 16.5553 36.1978 16.5465 36.1839 16.5378C34.1123 15.219 32.323 14.08 29.5195 14.8822C29.4935 14.8897 29.4676 14.8981 29.4423 14.9076C28.8479 15.1308 28.3075 15.3389 27.7847 15.5401C24.592 16.7692 22.8488 17.4404 19.7747 17.3539V16.5454C19.7747 12.0098 23.4645 8.31986 28 8.31986C32.5354 8.31986 36.2252 12.0098 36.2252 16.5454L36.2253 16.5641ZM40.2061 25.5259C40.2061 25.976 39.84 26.3421 39.3899 26.3421H37.3779C37.662 25.698 37.8821 25.0197 38.0291 24.3146H38.8635C39.3375 24.3146 39.7901 24.223 40.2062 24.0579L40.2061 25.5259ZM40.5009 20.655C40.5009 21.5595 39.7664 22.2954 38.8634 22.2954H38.2437C38.2439 22.2704 38.2447 17.9499 38.2447 17.9499H38.8635C39.7664 17.9499 40.501 18.6845 40.501 19.5875L40.5009 20.655ZM17.1368 22.2955C16.2339 22.2955 15.4993 21.5596 15.4993 20.6551V19.5876C15.4993 18.6846 16.2338 17.95 17.1368 17.95H17.7556C17.7556 17.95 17.7564 22.2705 17.7566 22.2955H17.1368ZM17.7744 15.9307H17.1367C16.6647 15.9307 16.2139 16.0215 15.7993 16.1851C15.9036 9.54382 21.3362 4.17305 28.0001 4.17305C34.6659 4.17305 40.0999 9.54442 40.2035 16.1862C39.7883 16.0219 39.3364 15.9307 38.8634 15.9307H38.2256C37.9065 10.5668 33.4424 6.30062 28.0001 6.30062C22.5576 6.30062 18.0935 10.5669 17.7744 15.9307ZM19.8355 23.2027C19.8354 23.2016 19.8352 23.2006 19.8351 23.1996C19.7968 22.8783 19.7748 22.552 19.7748 22.2205V19.3731C23.229 19.4573 25.2895 18.6645 28.5101 17.4247C29.0173 17.2294 29.5416 17.0276 30.1128 16.8129C32.02 16.2805 33.1173 16.9793 35.0996 18.2412C35.4436 18.4602 35.8209 18.7002 36.2253 18.9466V22.2205C36.2253 23.7219 35.8191 25.1293 35.1136 26.3422H28.0001C27.4425 26.3422 26.9904 26.7942 26.9904 27.3518C26.9904 27.9094 27.4425 28.3614 28.0001 28.3614H33.4645C32.0105 29.6568 30.096 30.4461 28.0001 30.4461C23.7971 30.446 20.3226 27.2766 19.8355 23.2027ZM22.93 39.7241L21.1827 36.3199C21.2495 36.3006 21.317 36.2811 21.3834 36.2619C22.0996 36.0549 22.7834 35.857 23.4265 35.6547L26.1951 37.5217L22.93 39.7241ZM25.6085 51.8269L26.9825 45.8015H29.018L30.3941 51.8269H25.6085ZM45.7006 51.8269H32.4653L30.8628 44.8103L31.797 41.2993L32.8873 42.0345C33.3822 42.3682 34.0784 42.1881 34.3502 41.6581L36.7868 36.9059C38.6751 37.4934 40.5907 38.1956 42.1576 39.1812C44.5323 40.6748 45.6583 42.5123 45.7008 44.9634L45.7006 51.8269Z" fill="white"/>
<path d="M41.714 46.7786H36.6258C36.0683 46.7786 35.6162 47.2306 35.6162 47.7882C35.6162 48.3458 36.0683 48.7978 36.6258 48.7978H41.714C42.2715 48.7978 42.7236 48.3458 42.7236 47.7882C42.7236 47.2306 42.2716 46.7786 41.714 46.7786Z" fill="white"/>
<path d="M16.8163 51.8269C16.2587 51.8269 15.8066 52.2789 15.8066 52.8365C15.8066 53.3941 16.2587 53.8461 16.8163 53.8461H16.8191C17.3766 53.8461 17.8272 53.3941 17.8272 52.8365C17.8272 52.2789 17.3738 51.8269 16.8163 51.8269Z" fill="white"/>
</svg>
