<svg width="40" height="41" viewBox="0 0 40 41" fill="none" xmlns="http://www.w3.org/2000/svg">
<path d="M26.1054 19.8066C22.7437 17.9934 19.5247 16.3121 16.2344 14.5717V24.9838C19.6968 23.0841 23.347 21.3437 26.1197 19.7922L26.1054 19.8066Z" fill="white"/>
<path d="M38.2897 16.3409C38.3674 13.9333 37.844 11.5445 36.7673 9.39458C36.0478 8.49737 35.0334 7.8904 33.9082 7.68363C29.2882 7.27882 24.6505 7.11424 20.0136 7.19073C15.3769 7.11384 10.7395 7.27842 6.11961 7.68363C5.20439 7.85612 4.35703 8.28865 3.67689 8.93042C2.18579 10.3255 2.07694 12.7167 1.85244 14.731C1.60648 18.3617 1.60648 22.0053 1.85244 25.636C1.89303 26.773 2.06169 27.9017 2.35518 29.0001C2.55394 29.8506 2.95881 30.6381 3.53336 31.2918C4.21359 31.9683 5.07958 32.4227 6.01901 32.5961C9.61204 33.0454 13.2329 33.2297 16.8525 33.1475V33.1476C22.676 33.2416 27.8071 33.142 33.8497 32.6834C34.8154 32.5162 35.7076 32.0559 36.4074 31.3639C36.862 30.9077 37.2062 30.3518 37.4136 29.7395C38.0162 27.8972 38.3122 25.9668 38.2897 24.0268C38.3468 23.0258 38.3468 17.3419 38.2897 16.3409ZM26.1059 19.8066C26.1037 19.8054 26.1017 19.8043 26.0996 19.8032C24.7176 20.5758 23.1202 21.3949 21.4362 22.2575C19.7442 23.124 17.9661 24.0339 16.2349 24.9838V14.5718V14.5717C17.8801 15.4419 19.5074 16.2974 21.1436 17.1619C22.7778 18.0253 24.421 18.8978 26.0996 19.8032C26.106 19.7996 26.1137 19.7958 26.1201 19.7922L26.1059 19.8066Z" fill="#FF0000"/>
</svg>
