<svg width="216" height="71" viewBox="0 0 216 71" fill="none" xmlns="http://www.w3.org/2000/svg">
<path d="M7.77524 6.4021L7.19446 33.7228L6.4043 7.33698L7.70412 6.4021H7.77524Z" fill="url(#paint0_linear_3201_2423)"/>
<path d="M5.44809 8.14575L4.86336 32.4607L4.07715 9.08064L5.37302 8.14575H5.44809Z" fill="url(#paint1_linear_3201_2423)"/>
<path d="M9.97959 4.76904L9.40673 34.6301L8.62842 5.73943L9.97959 4.76904Z" fill="url(#paint2_linear_3201_2423)"/>
<path d="M12.1885 3.18335L11.6156 35.5611L10.8452 4.14979L12.1885 3.18335Z" fill="url(#paint3_linear_3201_2423)"/>
<path d="M14.397 1.59766L13.828 36.6066L13.0576 2.56015L14.397 1.59766Z" fill="url(#paint4_linear_3201_2423)"/>
<path d="M16.6209 0L16.0402 37.6755L15.25 0.982222L16.6209 0Z" fill="url(#paint5_linear_3201_2423)"/>
<path d="M26.85 48.1208L26.289 70.921L25.5146 48.7283L26.85 48.1208Z" fill="url(#paint6_linear_3201_2423)"/>
<path d="M35.7117 44.0776L35.1349 70.8816L34.3486 44.7009L35.7117 44.0776Z" fill="url(#paint7_linear_3201_2423)"/>
<path d="M22.4327 50.1367L21.8638 70.9212L21.0854 50.7521L22.4327 50.1367Z" fill="url(#paint8_linear_3201_2423)"/>
<path d="M31.2909 46.0935L30.7101 70.9607L29.9199 46.7207L31.2909 46.0935Z" fill="url(#paint9_linear_3201_2423)"/>
<path d="M33.4992 45.0874L32.9224 70.9605L32.1401 45.7067L33.4992 45.0874Z" fill="url(#paint10_linear_3201_2423)"/>
<path d="M29.0664 47.1111L28.4975 70.9605L27.7231 47.7225L29.0664 47.1111Z" fill="url(#paint11_linear_3201_2423)"/>
<path d="M20.2283 51.1426L19.6514 70.9211L18.8652 51.7619L20.2283 51.1426Z" fill="url(#paint12_linear_3201_2423)"/>
<path d="M24.6451 49.127L24.0762 71.0001L23.2979 49.7423L24.6451 49.127Z" fill="url(#paint13_linear_3201_2423)"/>
<path d="M16.8464 40.5946L16.0602 70.9803L15.4873 39.9595L16.8464 40.5946Z" fill="url(#paint14_linear_3201_2423)"/>
<path d="M14.63 39.5611L13.8477 70.9212L13.2788 38.926L14.63 39.5611Z" fill="url(#paint15_linear_3201_2423)"/>
<path d="M12.4215 38.5276L11.6353 70.9409L11.0664 37.8965L12.4215 38.5276Z" fill="url(#paint16_linear_3201_2423)"/>
<path d="M10.2051 37.49L9.42683 70.9605L8.85791 36.8628L10.2051 37.49Z" fill="url(#paint17_linear_3201_2423)"/>
<path d="M7.99669 36.4605L7.21443 70.9802L6.64551 35.8293L7.99669 36.4605Z" fill="url(#paint18_linear_3201_2423)"/>
<path d="M5.79574 35.435L5.00163 70.9409L4.4248 34.792L5.79574 35.435Z" fill="url(#paint19_linear_3201_2423)"/>
<path d="M3.5714 34.3936L2.78913 70.9015L2.22021 33.7625L3.5714 34.3936Z" fill="url(#paint20_linear_3201_2423)"/>
<path d="M1.37094 33.3678L0.576822 70.921L0 32.7249L1.37094 33.3678Z" fill="url(#paint21_linear_3201_2423)"/>
<path d="M28.9635 25.0447L28.1892 44.9968L27.6084 24.0427L28.9635 25.0447Z" fill="url(#paint22_linear_3201_2423)"/>
<path d="M31.2907 26.6699L30.5163 44.0659L29.9355 25.668L31.2907 26.6699Z" fill="url(#paint23_linear_3201_2423)"/>
<path d="M26.7471 23.4037L25.9767 46.0422L25.4038 22.4097L26.7471 23.4037Z" fill="url(#paint24_linear_3201_2423)"/>
<path d="M24.5307 21.7667L23.7642 47.0323L23.1953 20.7766L24.5307 21.7667Z" fill="url(#paint25_linear_3201_2423)"/>
<path d="M22.3222 20.1337L21.5518 48.0185L20.9829 19.1436L22.3222 20.1337Z" fill="url(#paint26_linear_3201_2423)"/>
<path d="M20.1297 18.5084L19.3396 49.1229L18.7588 17.4985L20.1297 18.5084Z" fill="url(#paint27_linear_3201_2423)"/>
<path d="M69.4358 36.709H58.3102L56.1886 41.8371H50.5073L61.1825 17.9087H66.6583L77.373 41.8371H71.5534L69.4358 36.709ZM67.6895 32.504L63.8888 23.3445L60.0881 32.504H67.6895ZM101.995 41.8371L97.3721 35.1706H97.0995H92.2716V41.8371H86.7246V17.9087H97.0995C99.2211 17.9087 101.066 18.2638 102.627 18.9699C104.191 19.676 105.392 20.6779 106.238 21.9796C107.083 23.2774 107.506 24.8159 107.506 26.5949C107.506 28.3739 107.079 29.9045 106.222 31.1944C105.365 32.4803 104.152 33.4665 102.575 34.1529L107.948 41.845H101.995V41.8371ZM100.588 23.4983C99.7189 22.7804 98.4546 22.4214 96.7874 22.4214H92.2676V30.7605H96.7874C98.4546 30.7605 99.7189 30.3976 100.588 29.6678C101.453 28.938 101.888 27.9124 101.888 26.591C101.892 25.2458 101.457 24.2123 100.588 23.4983ZM140.543 41.8371L140.507 27.4785L133.455 39.3046H130.954L123.938 27.7862V41.8371H118.734V17.9087H123.321L132.29 32.7801L141.124 17.9087H145.679L145.746 41.8371H140.543ZM163.154 40.6379C161.154 39.5689 159.594 38.0897 158.464 36.212C157.334 34.3304 156.769 32.22 156.769 29.8729C156.769 27.5258 157.334 25.4115 158.464 23.5338C159.594 21.6522 161.158 20.1769 163.154 19.1079C165.149 18.0389 167.393 17.5024 169.882 17.5024C172.371 17.5024 174.607 18.0389 176.59 19.1079C178.578 20.1809 180.138 21.6562 181.28 23.5338C182.422 25.4154 182.991 27.5298 182.991 29.8729C182.991 32.22 182.422 34.3343 181.28 36.212C180.138 38.0936 178.574 39.5689 176.59 40.6379C174.603 41.7109 172.367 42.2434 169.882 42.2434C167.393 42.2473 165.153 41.7109 163.154 40.6379ZM173.718 36.5552C174.86 35.9043 175.757 35.001 176.405 33.8373C177.056 32.6736 177.38 31.3522 177.38 29.8729C177.38 28.3937 177.056 27.0683 176.405 25.9085C175.753 24.7448 174.86 23.8415 173.718 23.1906C172.576 22.5398 171.3 22.2163 169.882 22.2163C168.467 22.2163 167.187 22.5398 166.046 23.1906C164.904 23.8415 164.007 24.7448 163.359 25.9085C162.707 27.0722 162.383 28.3937 162.383 29.8729C162.383 31.3561 162.707 32.6776 163.359 33.8373C164.011 35.001 164.904 35.9043 166.046 36.5552C167.187 37.206 168.463 37.5295 169.882 37.5295C171.296 37.5295 172.576 37.2021 173.718 36.5552ZM216 17.9087V41.8371H211.445L199.497 27.3089V41.8371H194.021V17.9087H198.608L210.524 32.4369V17.9087H216Z" fill="#383838"/>
<path d="M86.855 47.9948H90.3199C91.1891 47.9948 91.9595 48.1683 92.6351 48.5115C93.3067 48.8547 93.8322 49.3399 94.2035 49.9592C94.5749 50.5825 94.7606 51.2925 94.7606 52.1012C94.7606 52.9059 94.5749 53.6199 94.2035 54.2431C93.8322 54.8664 93.3106 55.3476 92.6351 55.6908C91.9634 56.034 91.1891 56.2076 90.3199 56.2076H86.855V47.9948ZM90.2488 55.1859C90.9125 55.1859 91.5012 55.0557 92.0029 54.7993C92.5086 54.5429 92.8958 54.18 93.1724 53.7145C93.445 53.2491 93.5833 52.7126 93.5833 52.1012C93.5833 51.4898 93.445 50.9533 93.1724 50.4878C92.8998 50.0223 92.5086 49.6594 92.0029 49.403C91.4972 49.1466 90.9125 49.0164 90.2488 49.0164H88.0284V55.1859H90.2488ZM102.52 55.1859V56.2076H96.5543V47.9987H102.358V49.0204H97.7316V51.541H101.852V52.539H97.7316V55.1898H102.52V55.1859ZM111.445 47.9948L107.838 56.2036H106.676L103.057 47.9948H104.326L107.285 54.7362L110.268 47.9948H111.445ZM118.458 55.1859V56.2076H112.492V47.9987H118.296V49.0204H113.665V51.541H117.786V52.539H113.665V55.1898H118.458V55.1859ZM120.362 47.9948H121.535V55.1859H125.988V56.2076H120.362V47.9948ZM128.651 55.7539C127.987 55.391 127.462 54.8901 127.082 54.2471C126.703 53.608 126.513 52.8901 126.513 52.1012C126.513 51.3122 126.703 50.5983 127.082 49.9553C127.462 49.3162 127.983 48.8113 128.651 48.4484C129.315 48.0855 130.065 47.9041 130.895 47.9041C131.717 47.9041 132.459 48.0855 133.127 48.4484C133.791 48.8113 134.312 49.3123 134.688 49.9513C135.063 50.5904 135.253 51.3044 135.253 52.1012C135.253 52.898 135.063 53.6159 134.688 54.251C134.312 54.8901 133.791 55.3871 133.127 55.7539C132.463 56.1168 131.717 56.2983 130.895 56.2983C130.065 56.2983 129.319 56.1168 128.651 55.7539ZM132.523 54.8427C133.005 54.5705 133.384 54.1918 133.661 53.7106C133.937 53.2293 134.079 52.6929 134.079 52.0972C134.079 51.5016 133.941 50.9651 133.661 50.4839C133.384 50.0026 133.005 49.6279 132.523 49.3517C132.041 49.0796 131.499 48.9415 130.895 48.9415C130.29 48.9415 129.745 49.0796 129.255 49.3517C128.765 49.6239 128.382 50.0026 128.106 50.4839C127.829 50.9651 127.687 51.5016 127.687 52.0972C127.687 52.6929 127.825 53.2293 128.106 53.7106C128.382 54.1918 128.765 54.5705 129.255 54.8427C129.745 55.1149 130.29 55.253 130.895 55.253C131.499 55.253 132.041 55.1188 132.523 54.8427ZM142.767 48.76C143.38 49.2689 143.684 49.9671 143.684 50.8586C143.684 51.7501 143.38 52.4483 142.767 52.9572C142.155 53.466 141.317 53.7185 140.254 53.7185H138.224V56.2036H137.05V47.9948H140.258C141.321 47.9948 142.159 48.2512 142.767 48.76ZM141.922 52.2235C142.313 51.9079 142.51 51.4503 142.51 50.8586C142.51 50.263 142.313 49.8093 141.922 49.4938C141.531 49.1782 140.962 49.0204 140.219 49.0204H138.224V52.7008H140.219C140.966 52.6968 141.531 52.539 141.922 52.2235ZM153.035 56.2036L153.024 50.2235L150.053 55.2056H149.511L146.54 50.259V56.2036H145.414V47.9948H146.378L149.808 53.7658L153.189 47.9948H154.154L154.165 56.2036H153.035ZM162.592 55.1859V56.2076H156.627V47.9987H162.43V49.0204H157.804V51.541H161.925V52.539H157.804V55.1898H162.592V55.1859ZM171.565 47.9948V56.2036H170.601L165.666 50.0815V56.2036H164.493V47.9948H165.457L170.391 54.1169V47.9948H171.565ZM175.666 49.0164H172.849V47.9948H179.648V49.0164H176.831V56.2036H175.67V49.0164H175.666Z" fill="url(#paint28_linear_3201_2423)"/>
<path d="M215.747 51.9077H189.355V53.6631H215.747V51.9077Z" fill="#383838"/>
<path d="M75.876 51.9077H49.4844V53.6631H75.876V51.9077Z" fill="#383838"/>
<path d="M55.6319 64.9212V70.4003H55.1498V65.7614L52.7635 69.6942H52.5225L50.1481 65.7693V70.3964H49.6621V64.9172H50.1757L52.6569 69.0631L55.1459 64.9172H55.6319V64.9212Z" fill="#393939"/>
<path d="M67.8359 67.7851H63.1186C63.1344 68.2111 63.2411 68.5898 63.4465 68.9251C63.648 69.2564 63.9246 69.5128 64.2722 69.6943C64.6199 69.8757 65.011 69.9665 65.4456 69.9665C65.8012 69.9665 66.1331 69.8994 66.4373 69.7732C66.7415 69.643 66.9943 69.4537 67.1998 69.2012L67.504 69.5483C67.267 69.8363 66.9667 70.0572 66.6072 70.211C66.2476 70.3649 65.8565 70.4438 65.4338 70.4438C64.8886 70.4438 64.4026 70.3254 63.972 70.0888C63.5453 69.8521 63.2095 69.5207 62.9685 69.1026C62.7275 68.6845 62.605 68.2032 62.605 67.6667C62.605 67.1342 62.7196 66.6569 62.9448 66.2348C63.1739 65.8127 63.486 65.4814 63.885 65.2447C64.2841 65.008 64.7345 64.8857 65.2283 64.8857C65.7261 64.8857 66.1726 65.0041 66.5677 65.2368C66.9627 65.4696 67.2749 65.797 67.504 66.219C67.7331 66.6372 67.8438 67.1145 67.8438 67.647L67.8359 67.7851ZM64.1893 65.5997C63.8811 65.7733 63.6322 66.0139 63.4505 66.3216C63.2648 66.6332 63.1581 66.9843 63.1304 67.3748H67.3341C67.3144 66.9843 67.2077 66.6332 67.0181 66.3255C66.8284 66.0179 66.5795 65.7772 66.2713 65.6037C65.9632 65.4301 65.6155 65.3394 65.2323 65.3394C64.8411 65.3394 64.4974 65.4262 64.1893 65.5997Z" fill="#393939"/>
<path d="M78.7521 64.9214V70.4005H78.2266V68.0416C77.5747 68.3414 76.9228 68.4913 76.2709 68.4913C75.6269 68.4913 75.1212 68.3453 74.7538 68.0495C74.3864 67.7576 74.2007 67.3237 74.2007 66.7478V64.9214H74.7261V66.7162C74.7261 67.1422 74.8684 67.4736 75.1568 67.7024C75.4452 67.9351 75.8403 68.0495 76.346 68.0495C76.9189 68.0495 77.5471 67.9075 78.2266 67.6195V64.9214H78.7521Z" fill="#393939"/>
<path d="M89.945 65.3947H87.7997V70.4005H87.2742V65.3947H85.1289V64.9214H89.941V65.3947H89.945Z" fill="#393939"/>
<path d="M100.043 67.359C100.399 67.6509 100.58 68.073 100.58 68.6331C100.58 69.213 100.391 69.6587 100.011 69.9664C99.6321 70.2741 99.0869 70.424 98.3718 70.4161L96.3213 70.3964V64.9172H96.8468V66.8896L98.4863 66.9093C99.1659 66.9211 99.6874 67.071 100.043 67.359ZM99.6242 69.6627C99.9126 69.4299 100.055 69.0907 100.055 68.6331C100.055 68.1913 99.9165 67.8639 99.636 67.6509C99.3555 67.4379 98.9288 67.3235 98.352 67.3116L96.8507 67.2998V69.9743L98.352 69.994C98.913 70.0058 99.3358 69.8954 99.6242 69.6627ZM101.588 64.9212H102.113V70.4003H101.588V64.9212Z" fill="#393939"/>
<path d="M118.371 70.0848C117.952 69.8482 117.62 69.5168 117.383 69.0947C117.146 68.6727 117.028 68.1954 117.028 67.6628C117.028 67.1224 117.146 66.6451 117.383 66.2191C117.62 65.797 117.952 65.4656 118.371 65.2329C118.79 65.0002 119.268 64.8818 119.801 64.8818C120.244 64.8818 120.643 64.9686 121.006 65.1382C121.366 65.3118 121.658 65.5603 121.883 65.8877L121.496 66.1717C121.299 65.8996 121.058 65.6944 120.765 65.5564C120.473 65.4183 120.153 65.3512 119.805 65.3512C119.379 65.3512 118.995 65.4459 118.656 65.6392C118.316 65.8325 118.051 66.1047 117.858 66.4518C117.664 66.8029 117.569 67.2052 117.569 67.6589C117.569 68.1125 117.664 68.5149 117.858 68.8659C118.051 69.217 118.316 69.4853 118.656 69.6785C118.995 69.8718 119.379 69.9665 119.805 69.9665C120.157 69.9665 120.477 69.8994 120.765 69.7614C121.058 69.6233 121.299 69.4221 121.496 69.146L121.883 69.43C121.658 69.7574 121.366 70.0099 121.006 70.1795C120.647 70.3531 120.244 70.4359 119.801 70.4359C119.268 70.4399 118.79 70.3215 118.371 70.0848Z" fill="#393939"/>
<path d="M132.582 65.3473C132.977 65.5761 133.289 65.8917 133.51 66.298C133.736 66.7043 133.846 67.1737 133.846 67.7023C133.846 68.2348 133.732 68.7082 133.506 69.1224C133.277 69.5405 132.961 69.864 132.55 70.0967C132.139 70.3294 131.673 70.4478 131.148 70.4478C130.543 70.4478 130.034 70.3018 129.607 70.006C129.184 69.7141 128.86 69.2959 128.639 68.7594C128.418 68.219 128.307 67.5918 128.307 66.8699C128.307 66.0534 128.406 65.3749 128.607 64.8345C128.809 64.2941 129.109 63.872 129.512 63.5604C129.915 63.2488 130.433 63.016 131.061 62.8622L133.491 62.2744L133.574 62.7675L131.262 63.3119C130.693 63.446 130.235 63.6393 129.88 63.8957C129.524 64.1521 129.259 64.4992 129.085 64.941C128.912 65.3828 128.821 65.943 128.813 66.6293C128.995 66.1244 129.299 65.7299 129.725 65.438C130.152 65.1461 130.65 65.0041 131.219 65.0041C131.733 65.0041 132.187 65.1185 132.582 65.3473ZM132.274 69.7062C132.602 69.5089 132.859 69.2407 133.04 68.8936C133.222 68.5464 133.313 68.1559 133.313 67.7141C133.313 67.2723 133.222 66.8857 133.04 66.5425C132.859 66.2033 132.606 65.939 132.278 65.7536C131.954 65.5682 131.578 65.4775 131.16 65.4775C130.741 65.4775 130.366 65.5682 130.034 65.7536C129.706 65.939 129.449 66.2033 129.267 66.5425C129.085 66.8818 128.995 67.2723 128.995 67.7141C128.995 68.1559 129.085 68.5464 129.267 68.8936C129.449 69.2407 129.706 69.5129 130.034 69.7062C130.362 69.9034 130.737 69.9981 131.16 69.9981C131.575 69.9981 131.946 69.9034 132.274 69.7062Z" fill="#393939"/>
<path d="M144.549 67.359C144.905 67.6509 145.087 68.073 145.087 68.6331C145.087 69.213 144.897 69.6587 144.518 69.9664C144.138 70.2741 143.593 70.424 142.878 70.4161L140.828 70.3964V64.9172H141.353V66.8896L142.993 66.9093C143.672 66.9211 144.19 67.071 144.549 67.359ZM144.127 69.6627C144.415 69.4299 144.557 69.0907 144.557 68.6331C144.557 68.1913 144.419 67.8639 144.138 67.6509C143.858 67.4379 143.431 67.3235 142.854 67.3116L141.353 67.2998V69.9743L142.854 69.994C143.415 70.0058 143.842 69.8954 144.127 69.6627ZM146.094 64.9212H146.619V70.4003H146.094V64.9212Z" fill="#393939"/>
<path d="M158.586 68.9292C158.586 69.4065 158.413 69.7694 158.065 70.0218C157.717 70.2743 157.2 70.4005 156.504 70.4005H154.13V64.9214H156.441C157.05 64.9214 157.528 65.0437 157.875 65.2843C158.223 65.5249 158.397 65.872 158.397 66.3178C158.397 66.6413 158.306 66.9095 158.128 67.1225C157.95 67.3355 157.697 67.4894 157.377 67.5801C158.183 67.7142 158.586 68.1678 158.586 68.9292ZM154.647 67.4184H156.413C156.884 67.4184 157.243 67.3276 157.496 67.1501C157.749 66.9726 157.875 66.7162 157.875 66.3809C157.875 66.0377 157.749 65.7813 157.504 65.6117C157.255 65.4381 156.891 65.3553 156.417 65.3553H154.651V67.4184H154.647ZM158.061 68.9094C158.061 68.5386 157.942 68.2665 157.705 68.0929C157.468 67.9193 157.093 67.8325 156.579 67.8325H154.643V69.9745H156.492C157.539 69.9666 158.061 69.6155 158.061 68.9094Z" fill="#393939"/>
<path d="M169.096 65.3987C169.459 65.7458 169.641 66.2546 169.641 66.9252V70.4005H169.135V69.4261C168.962 69.7496 168.705 69.9981 168.369 70.1756C168.033 70.3531 167.63 70.4439 167.16 70.4439C166.552 70.4439 166.07 70.3019 165.714 70.0139C165.358 69.7259 165.185 69.3512 165.185 68.8818C165.185 68.4281 165.347 68.0573 165.674 67.7733C165.998 67.4893 166.52 67.3473 167.235 67.3473H169.116V66.9055C169.116 66.3966 168.977 66.0061 168.701 65.7418C168.424 65.4775 168.021 65.3434 167.488 65.3434C167.124 65.3434 166.777 65.4065 166.441 65.5328C166.109 65.659 165.825 65.8247 165.595 66.0377L165.335 65.659C165.607 65.4144 165.939 65.2251 166.322 65.087C166.706 64.949 167.109 64.8819 167.531 64.8819C168.211 64.878 168.732 65.0515 169.096 65.3987ZM168.397 69.6944C168.717 69.4853 168.954 69.1816 169.116 68.7832V67.7536H167.247C166.706 67.7536 166.318 67.8522 166.074 68.0455C165.833 68.2427 165.71 68.511 165.71 68.8542C165.71 69.2092 165.844 69.4932 166.109 69.6983C166.374 69.9034 166.749 70.006 167.235 70.006C167.693 70.0099 168.081 69.9074 168.397 69.6944Z" fill="#393939"/>
<path d="M182.999 65.2291C183.406 65.4618 183.726 65.7932 183.955 66.2152C184.188 66.6373 184.303 67.1186 184.303 67.659C184.303 68.1915 184.188 68.6688 183.955 69.0909C183.722 69.513 183.406 69.8443 182.999 70.081C182.592 70.3177 182.134 70.436 181.624 70.436C181.134 70.436 180.692 70.3256 180.293 70.1086C179.898 69.8917 179.582 69.5879 179.348 69.1974C179.115 68.8069 178.981 68.3572 178.953 67.8523H177.555V70.3926H177.029V64.9135H177.555V67.3671H178.953C178.997 66.878 179.135 66.444 179.372 66.0654C179.609 65.6867 179.925 65.3948 180.316 65.1857C180.708 64.9766 181.142 64.8701 181.62 64.8701C182.134 64.878 182.592 64.9963 182.999 65.2291ZM182.726 69.6865C183.054 69.4893 183.311 69.2171 183.497 68.8621C183.683 68.5071 183.777 68.1087 183.777 67.659C183.777 67.2054 183.683 66.803 183.497 66.4519C183.311 66.1009 183.054 65.8326 182.726 65.6393C182.398 65.446 182.027 65.3514 181.624 65.3514C181.217 65.3514 180.85 65.446 180.522 65.6393C180.194 65.8326 179.933 66.1048 179.751 66.4519C179.566 66.803 179.471 67.2054 179.471 67.659C179.471 68.1047 179.566 68.5071 179.751 68.8621C179.937 69.2132 180.194 69.4893 180.522 69.6865C180.85 69.8838 181.217 69.9785 181.624 69.9785C182.031 69.9785 182.398 69.8798 182.726 69.6865Z" fill="#393939"/>
<path d="M194.737 65.3947H192.592V70.4005H192.066V65.3947H189.921V64.9214H194.737V65.3947Z" fill="#393939"/>
<path d="M201.655 70.0848C201.236 69.8482 200.904 69.5168 200.667 69.0947C200.43 68.6727 200.312 68.1954 200.312 67.6628C200.312 67.1224 200.43 66.6451 200.667 66.2191C200.904 65.797 201.236 65.4656 201.655 65.2329C202.074 65.0002 202.552 64.8818 203.085 64.8818C203.528 64.8818 203.927 64.9686 204.29 65.1382C204.65 65.3118 204.942 65.5603 205.167 65.8877L204.78 66.1717C204.582 65.8996 204.341 65.6944 204.049 65.5564C203.757 65.4183 203.437 65.3512 203.089 65.3512C202.662 65.3512 202.279 65.4459 201.939 65.6392C201.599 65.8325 201.335 66.1047 201.141 66.4518C200.948 66.8029 200.853 67.2052 200.853 67.6589C200.853 68.1125 200.948 68.5149 201.141 68.8659C201.335 69.217 201.599 69.4853 201.939 69.6785C202.279 69.8718 202.662 69.9665 203.089 69.9665C203.441 69.9665 203.761 69.8994 204.049 69.7614C204.341 69.6233 204.582 69.4221 204.78 69.146L205.167 69.43C204.942 69.7574 204.65 70.0099 204.29 70.1795C203.93 70.3531 203.528 70.4359 203.085 70.4359C202.552 70.4399 202.074 70.3215 201.655 70.0848Z" fill="#393939"/>
<path d="M215.819 64.9214V70.4005H215.337V68.511H213.507C213.381 68.511 213.29 68.5071 213.235 68.4992L211.88 70.4005H211.303L212.721 68.44C212.275 68.3414 211.931 68.1481 211.69 67.8641C211.453 67.5761 211.334 67.2053 211.334 66.7517C211.334 66.1521 211.536 65.6945 211.939 65.3869C212.342 65.0792 212.895 64.9253 213.594 64.9253H215.819V64.9214ZM213.559 68.1126H215.337V65.3829H213.622C212.445 65.3829 211.856 65.8444 211.856 66.7675C211.86 67.6629 212.425 68.1126 213.559 68.1126Z" fill="#393939"/>
<defs>
<linearGradient id="paint0_linear_3201_2423" x1="7.09045" y1="33.7217" x2="7.09045" y2="6.40391" gradientUnits="userSpaceOnUse">
<stop stop-color="#1679BE"/>
<stop offset="0.6872" stop-color="#54A9DD"/>
<stop offset="1" stop-color="#1679BE"/>
</linearGradient>
<linearGradient id="paint1_linear_3201_2423" x1="4.76179" y1="32.4625" x2="4.76179" y2="8.14772" gradientUnits="userSpaceOnUse">
<stop stop-color="#1679BE"/>
<stop offset="0.6872" stop-color="#54A9DD"/>
<stop offset="1" stop-color="#1679BE"/>
</linearGradient>
<linearGradient id="paint2_linear_3201_2423" x1="9.30296" y1="34.632" x2="9.30296" y2="4.76952" gradientUnits="userSpaceOnUse">
<stop stop-color="#1679BE"/>
<stop offset="0.6872" stop-color="#54A9DD"/>
<stop offset="1" stop-color="#1679BE"/>
</linearGradient>
<linearGradient id="paint3_linear_3201_2423" x1="11.5155" y1="35.562" x2="11.5155" y2="3.184" gradientUnits="userSpaceOnUse">
<stop stop-color="#1679BE"/>
<stop offset="0.6872" stop-color="#54A9DD"/>
<stop offset="1" stop-color="#1679BE"/>
</linearGradient>
<linearGradient id="paint4_linear_3201_2423" x1="13.727" y1="36.6083" x2="13.727" y2="1.59729" gradientUnits="userSpaceOnUse">
<stop stop-color="#1679BE"/>
<stop offset="0.6872" stop-color="#54A9DD"/>
<stop offset="1" stop-color="#1679BE"/>
</linearGradient>
<linearGradient id="paint5_linear_3201_2423" x1="15.9358" y1="37.6742" x2="15.9358" y2="0" gradientUnits="userSpaceOnUse">
<stop stop-color="#1679BE"/>
<stop offset="0.6872" stop-color="#54A9DD"/>
<stop offset="1" stop-color="#1679BE"/>
</linearGradient>
<linearGradient id="paint6_linear_3201_2423" x1="26.1842" y1="70.9205" x2="26.1842" y2="48.12" gradientUnits="userSpaceOnUse">
<stop stop-color="#1679BE"/>
<stop offset="0.6872" stop-color="#54A9DD"/>
<stop offset="1" stop-color="#1679BE"/>
</linearGradient>
<linearGradient id="paint7_linear_3201_2423" x1="35.0298" y1="70.8822" x2="35.0298" y2="44.077" gradientUnits="userSpaceOnUse">
<stop stop-color="#1679BE"/>
<stop offset="0.6872" stop-color="#54A9DD"/>
<stop offset="1" stop-color="#1679BE"/>
</linearGradient>
<linearGradient id="paint8_linear_3201_2423" x1="21.7596" y1="70.9206" x2="21.7596" y2="50.1358" gradientUnits="userSpaceOnUse">
<stop stop-color="#1679BE"/>
<stop offset="0.6872" stop-color="#54A9DD"/>
<stop offset="1" stop-color="#1679BE"/>
</linearGradient>
<linearGradient id="paint9_linear_3201_2423" x1="30.6057" y1="70.959" x2="30.6057" y2="46.094" gradientUnits="userSpaceOnUse">
<stop stop-color="#1679BE"/>
<stop offset="0.6872" stop-color="#54A9DD"/>
<stop offset="1" stop-color="#1679BE"/>
</linearGradient>
<linearGradient id="paint10_linear_3201_2423" x1="32.8182" y1="70.9588" x2="32.8182" y2="45.0871" gradientUnits="userSpaceOnUse">
<stop stop-color="#1679BE"/>
<stop offset="0.6872" stop-color="#54A9DD"/>
<stop offset="1" stop-color="#1679BE"/>
</linearGradient>
<linearGradient id="paint11_linear_3201_2423" x1="28.3957" y1="70.9589" x2="28.3957" y2="47.1098" gradientUnits="userSpaceOnUse">
<stop stop-color="#1679BE"/>
<stop offset="0.6872" stop-color="#54A9DD"/>
<stop offset="1" stop-color="#1679BE"/>
</linearGradient>
<linearGradient id="paint12_linear_3201_2423" x1="19.5471" y1="70.9206" x2="19.5471" y2="51.1413" gradientUnits="userSpaceOnUse">
<stop stop-color="#1679BE"/>
<stop offset="0.6872" stop-color="#54A9DD"/>
<stop offset="1" stop-color="#1679BE"/>
</linearGradient>
<linearGradient id="paint13_linear_3201_2423" x1="23.9711" y1="70.9986" x2="23.9711" y2="49.1269" gradientUnits="userSpaceOnUse">
<stop stop-color="#1679BE"/>
<stop offset="0.6872" stop-color="#54A9DD"/>
<stop offset="1" stop-color="#1679BE"/>
</linearGradient>
<linearGradient id="paint14_linear_3201_2423" x1="16.1678" y1="70.9787" x2="16.1678" y2="39.9584" gradientUnits="userSpaceOnUse">
<stop stop-color="#1679BE"/>
<stop offset="0.6872" stop-color="#54A9DD"/>
<stop offset="1" stop-color="#1679BE"/>
</linearGradient>
<linearGradient id="paint15_linear_3201_2423" x1="13.9551" y1="70.9206" x2="13.9551" y2="38.9274" gradientUnits="userSpaceOnUse">
<stop stop-color="#1679BE"/>
<stop offset="0.6872" stop-color="#54A9DD"/>
<stop offset="1" stop-color="#1679BE"/>
</linearGradient>
<linearGradient id="paint16_linear_3201_2423" x1="11.7436" y1="70.9404" x2="11.7436" y2="37.8952" gradientUnits="userSpaceOnUse">
<stop stop-color="#1679BE"/>
<stop offset="0.6872" stop-color="#54A9DD"/>
<stop offset="1" stop-color="#1679BE"/>
</linearGradient>
<linearGradient id="paint17_linear_3201_2423" x1="9.53093" y1="70.9588" x2="9.53093" y2="36.8639" gradientUnits="userSpaceOnUse">
<stop stop-color="#1679BE"/>
<stop offset="0.6872" stop-color="#54A9DD"/>
<stop offset="1" stop-color="#1679BE"/>
</linearGradient>
<linearGradient id="paint18_linear_3201_2423" x1="7.32003" y1="70.9786" x2="7.32003" y2="35.8293" gradientUnits="userSpaceOnUse">
<stop stop-color="#1679BE"/>
<stop offset="0.6872" stop-color="#54A9DD"/>
<stop offset="1" stop-color="#1679BE"/>
</linearGradient>
<linearGradient id="paint19_linear_3201_2423" x1="5.10931" y1="70.9404" x2="5.10931" y2="34.7925" gradientUnits="userSpaceOnUse">
<stop stop-color="#1679BE"/>
<stop offset="0.6872" stop-color="#54A9DD"/>
<stop offset="1" stop-color="#1679BE"/>
</linearGradient>
<linearGradient id="paint20_linear_3201_2423" x1="2.89541" y1="70.9009" x2="2.89541" y2="33.7637" gradientUnits="userSpaceOnUse">
<stop stop-color="#1679BE"/>
<stop offset="0.6872" stop-color="#54A9DD"/>
<stop offset="1" stop-color="#1679BE"/>
</linearGradient>
<linearGradient id="paint21_linear_3201_2423" x1="0.684597" y1="70.9205" x2="0.684597" y2="32.7267" gradientUnits="userSpaceOnUse">
<stop stop-color="#1679BE"/>
<stop offset="0.6872" stop-color="#54A9DD"/>
<stop offset="1" stop-color="#1679BE"/>
</linearGradient>
<linearGradient id="paint22_linear_3201_2423" x1="28.285" y1="44.9977" x2="28.285" y2="24.0409" gradientUnits="userSpaceOnUse">
<stop stop-color="#1679BE"/>
<stop offset="0.6872" stop-color="#54A9DD"/>
<stop offset="1" stop-color="#1679BE"/>
</linearGradient>
<linearGradient id="paint23_linear_3201_2423" x1="30.6136" y1="44.0678" x2="30.6136" y2="25.6683" gradientUnits="userSpaceOnUse">
<stop stop-color="#1679BE"/>
<stop offset="0.6872" stop-color="#54A9DD"/>
<stop offset="1" stop-color="#1679BE"/>
</linearGradient>
<linearGradient id="paint24_linear_3201_2423" x1="26.0746" y1="46.0439" x2="26.0746" y2="22.41" gradientUnits="userSpaceOnUse">
<stop stop-color="#1679BE"/>
<stop offset="0.6872" stop-color="#54A9DD"/>
<stop offset="1" stop-color="#1679BE"/>
</linearGradient>
<linearGradient id="paint25_linear_3201_2423" x1="23.863" y1="47.0321" x2="23.863" y2="20.7767" gradientUnits="userSpaceOnUse">
<stop stop-color="#1679BE"/>
<stop offset="0.6872" stop-color="#54A9DD"/>
<stop offset="1" stop-color="#1679BE"/>
</linearGradient>
<linearGradient id="paint26_linear_3201_2423" x1="21.6521" y1="48.0202" x2="21.6521" y2="19.1423" gradientUnits="userSpaceOnUse">
<stop stop-color="#1679BE"/>
<stop offset="0.6872" stop-color="#54A9DD"/>
<stop offset="1" stop-color="#1679BE"/>
</linearGradient>
<linearGradient id="paint27_linear_3201_2423" x1="19.4437" y1="49.1244" x2="19.4437" y2="17.4974" gradientUnits="userSpaceOnUse">
<stop stop-color="#1679BE"/>
<stop offset="0.6872" stop-color="#54A9DD"/>
<stop offset="1" stop-color="#1679BE"/>
</linearGradient>
<linearGradient id="paint28_linear_3201_2423" x1="145.924" y1="74.019" x2="119.932" y2="28.9282" gradientUnits="userSpaceOnUse">
<stop stop-color="#1679BE"/>
<stop offset="0.6872" stop-color="#54A9DD"/>
<stop offset="1" stop-color="#1679BE"/>
</linearGradient>
</defs>
</svg>
