<svg width="35" height="36" viewBox="0 0 35 36" fill="black" xmlns="http://www.w3.org/2000/svg">
    <path d="M17.5 0C7.83266 0 0 8.05645 0 18C0 27.9435 7.83266 36 17.5 36C27.1673 36 35 27.9435 35 18C35 8.05645 27.1673 0 17.5 0ZM26.0948 12.3315L23.2228 26.2524C23.0111 27.2395 22.4395 27.479 21.6421 27.0145L17.2671 23.6976L15.1573 25.7879C14.9244 26.0274 14.7268 26.2306 14.2752 26.2306L14.5857 21.6508L22.6935 14.1169C23.0464 13.7976 22.6159 13.6161 22.1502 13.9355L12.13 20.4242L7.81149 19.0379C6.87298 18.7331 6.85181 18.0726 8.00907 17.6081L24.881 10.9161C25.6643 10.6258 26.3488 11.1121 26.0948 12.3315Z"
          />
</svg>
