<svg width="56" height="56" viewBox="0 0 56 56" fill="none" xmlns="http://www.w3.org/2000/svg">
<path d="M5.49062 0.164145C5.14062 0.31727 1.09375 3.6204 0.579687 4.17821C0.251563 4.52821 0 5.16258 0 5.65477C0 6.49696 0.295312 6.8579 2.78906 8.92508C4.07969 10.0079 5.30469 10.9485 5.49062 11.036C6.08125 11.2766 7.03281 11.1454 7.51406 10.7626C7.89687 10.4563 8.21406 9.97508 8.35625 9.4829C8.41094 9.3079 9.12187 9.29696 21.3281 9.29696C35.3391 9.29696 34.5406 9.32977 35.3609 8.70633C35.5687 8.55321 35.875 8.15946 36.0391 7.85321C36.3344 7.31727 36.3672 7.16415 36.4 5.8954C36.4328 4.83446 36.4 4.37508 36.2687 3.89383C36.0609 3.17196 35.5141 2.51571 34.8469 2.15477L34.3984 1.91415L21.3937 1.85946L8.38906 1.80477L8.27969 1.47665C7.90781 0.328208 6.5625 -0.306167 5.49062 0.164145ZM6.5625 2.61415C6.66094 3.83915 5.10781 3.71883 20.5187 3.71883H33.8953L34.2016 3.98133C34.4969 4.24383 34.5078 4.28758 34.5406 5.49071C34.5844 6.71571 34.5734 6.74852 34.2891 7.08758L33.9937 7.43758H20.6172H7.24062L6.90156 7.71102C6.61719 7.96258 6.57344 8.0829 6.54063 8.61883C6.51875 9.08915 6.46406 9.25321 6.33281 9.27508C6.14687 9.3079 1.93594 5.86258 1.88125 5.6329C1.8375 5.44696 6.125 1.84852 6.34375 1.89227C6.46406 1.90321 6.51875 2.11102 6.5625 2.61415Z" fill="white"/>
<path d="M49.1969 9.40623C48.4422 9.63592 47.6875 10.4234 47.6875 10.9812C47.6875 11.1344 46.4844 11.1562 34.7047 11.1781L21.7109 11.2109L21.1203 11.539C20.3984 11.9328 19.95 12.4687 19.7422 13.1687C19.5234 13.8906 19.5234 15.9687 19.7422 16.6906C19.95 17.3797 20.5188 18.0578 21.1859 18.3859L21.7109 18.6484L34.7047 18.6812C46.2328 18.7031 47.6875 18.725 47.6875 18.8781C47.6875 18.9656 47.7859 19.2281 47.9062 19.4687C48.3656 20.3765 49.7219 20.7703 50.6625 20.2781C50.8813 20.1687 52.0734 19.2172 53.3203 18.1672C55.7375 16.1328 56 15.8265 56 14.9297C56 14.0219 55.7484 13.7265 53.2984 11.6703C52.0406 10.6203 50.8594 9.67967 50.6734 9.58123C50.2359 9.36248 49.5797 9.27498 49.1969 9.40623ZM52.0406 13.0484C53.1891 14.0109 54.1406 14.8531 54.1406 14.9297C54.1406 15.0062 53.1562 15.8812 51.9422 16.8875C49.525 18.9 49.4375 18.9328 49.4375 17.9156C49.4375 17.489 49.3828 17.325 49.1641 17.1172L48.9016 16.8437H35.6781C26.2828 16.8437 22.3563 16.8109 22.1047 16.7234C21.5797 16.5375 21.4375 16.1437 21.4375 14.9297C21.4375 13.7156 21.5797 13.3219 22.1047 13.1359C22.3563 13.0484 26.2937 13.0156 35.7219 13.0156H48.9891L49.2078 12.7312C49.3719 12.5344 49.4375 12.2828 49.4375 11.9328C49.4375 11.4078 49.6016 11.1125 49.8094 11.2328C49.875 11.2765 50.8813 12.0969 52.0406 13.0484Z" fill="white"/>
<path d="M24.0078 23.4063C22.7609 23.6031 21.8531 23.9641 18.8016 25.4953L15.7391 27.0156H12.4688C9.24219 27.0156 9.19844 27.0156 9.13281 26.7859C9.0125 26.425 8.32344 25.7141 7.83125 25.4516C7.40469 25.2219 7.25156 25.2109 4.375 25.2109C1.00625 25.2109 0.951562 25.2219 0.360938 25.9984L0.0546875 26.3922L0.021875 34.3984L0 42.3938L0.251563 42.875C0.426562 43.2031 0.65625 43.4328 0.984375 43.6078C1.43281 43.8484 1.55313 43.8594 3.99219 43.8594H6.52969L7.94062 44.45L9.35156 45.0406L9.41719 45.6313C9.5375 46.725 10.1828 47.6328 11.2219 48.1359C11.8344 48.4422 12.0422 48.4859 12.7422 48.4859L13.5516 48.475L13.8359 49.0656C14.1969 49.7984 15.0391 50.575 15.75 50.8047C16.0891 50.9141 16.5703 50.9688 17.0297 50.9578L17.7625 50.9359L17.9156 51.3844C18.1234 52.0188 18.8234 52.7625 19.5562 53.1234C20.0703 53.375 20.3328 53.4297 21.0547 53.4406L21.9297 53.4516L22.0172 53.7797C22.2141 54.4359 22.8813 55.1578 23.6687 55.5625C24.2922 55.8797 24.5109 55.9344 25.1344 55.9344C25.9219 55.9344 26.6328 55.6828 27.2563 55.2016L27.5953 54.9281L28.1859 55.3438C28.5031 55.5734 29.0281 55.825 29.3344 55.8906C31.325 56.3719 33.3266 54.8625 33.3922 52.85L33.4031 52.2156L34.0156 52.0406C35.1094 51.7125 35.9734 50.7281 36.2141 49.525L36.3344 48.9234L36.925 48.8578C38.7188 48.6719 40.1187 46.7578 39.7359 45.0078L39.6375 44.5703L40.2938 44.2094L40.95 43.8594H47.7422H54.5453L55.0156 43.6078C55.3438 43.4328 55.5734 43.2031 55.7484 42.875L56 42.3938L55.9781 34.3984L55.9453 26.3922L55.6391 25.9984C55.0484 25.2219 54.9937 25.2109 51.625 25.2109C48.7484 25.2109 48.5953 25.2219 48.1688 25.4516C47.6766 25.7141 46.9875 26.425 46.8672 26.7859C46.8016 27.0047 46.7359 27.0156 44.975 27.0156H43.1484L39.9219 25.4297C36.1266 23.5594 35.5797 23.3844 33.6328 23.3844C32.2109 23.3844 31.1281 23.5922 30.0016 24.1063L29.4219 24.3797L28.7875 24.0953C27.3984 23.4828 25.3969 23.1984 24.0078 23.4063ZM35.3828 25.4516C35.9188 25.5719 36.9578 26.0422 38.8281 26.9938C42.6016 28.9188 42.525 28.8859 44.8547 28.9625L46.7797 29.0172L47.4578 35.2078C47.8297 38.6094 48.1578 41.5297 48.1906 41.6938L48.2562 42H45.0953H41.9453L41.9344 41.2016C41.9344 40.2172 41.5844 39.4297 40.8297 38.7078C40.3156 38.2156 31.2703 31.8391 30.5156 31.4344C30.2422 31.2922 29.9031 31.2375 29.3672 31.2375C28.0437 31.2375 27.9016 31.3578 25.0578 34.7813C22.9906 37.2641 22.5859 37.6906 22.0719 37.9641C21.0109 38.5109 19.3594 37.8984 19.3594 36.9578C19.3594 36.6297 19.25 36.7938 22.05 32.8016C24.8609 28.7875 24.8937 28.7547 28.3062 27.0375C29.7281 26.3156 31.15 25.6484 31.4672 25.55C32.6922 25.1453 33.9281 25.1125 35.3828 25.4516ZM26.95 25.4297C27.1031 25.4953 26.9281 25.6266 26.075 26.075C24.6969 26.7859 24.1391 27.1797 23.3297 28C22.5859 28.7438 17.8172 35.5031 17.6203 36.0828C17.4672 36.5422 17.4672 37.3297 17.6094 37.8656C17.7734 38.4453 18.5719 39.2766 19.3266 39.6484C20.1469 40.0531 21.4594 40.1516 22.3344 39.8781C23.4172 39.5281 23.8438 39.1234 26.3703 36.1156C27.7594 34.4641 28.9078 33.1953 29.0609 33.1297C29.2141 33.075 29.4438 33.0531 29.575 33.0969C29.8484 33.1844 39.3531 39.8125 39.6156 40.1078C39.8781 40.3922 40.1406 41.0594 40.1406 41.4203C40.1406 42.0984 39.4188 42.7656 38.6859 42.7656C38.5438 42.7656 38.1937 42.6453 37.9094 42.4922C37.625 42.3391 37.275 42.2188 37.1219 42.2188C36.7391 42.2188 36.3125 42.6781 36.3125 43.0938C36.3125 43.575 36.4547 43.7828 37.0672 44.2313C37.45 44.5156 37.6578 44.7672 37.8 45.1172C37.975 45.5766 37.975 45.6422 37.8 46.1016C37.4062 47.1297 36.3453 47.3156 35.3609 46.55C34.7375 46.0578 34.4531 45.9813 34.0484 46.1781C33.425 46.4734 33.3266 47.25 33.8516 47.7094C34.4312 48.2125 34.5625 49.1094 34.1469 49.7438C33.775 50.3125 32.8125 50.4875 32.2109 50.0938C31.7188 49.7656 31.2484 49.8094 30.9094 50.2141C30.5375 50.6516 30.5484 50.9797 30.9422 51.4281C31.3906 51.9531 31.5 52.2047 31.5 52.7516C31.5 53.2984 31.2375 53.7141 30.7344 53.9766C30.2312 54.2391 29.8266 54.1734 29.1812 53.7469L28.5797 53.3531L28.7328 52.8391C28.9625 52.1172 28.8641 51.0453 28.5141 50.3563C28.2297 49.7875 27.5844 49.1313 27.0484 48.8469C26.6219 48.6391 25.6375 48.475 25.0906 48.5297C24.6531 48.5844 24.6422 48.5734 24.4562 48.0922C24.2047 47.425 23.6469 46.8125 22.9578 46.4297C22.4328 46.1344 22.2687 46.1016 21.4156 46.1016C20.4859 46.1016 20.4641 46.0906 20.3984 45.8281C20.2781 45.3469 19.7094 44.5594 19.2281 44.2313C18.5063 43.7172 18.0688 43.5859 17.1719 43.5859L16.3406 43.5969L16.0891 43.0172C15.5969 41.8906 14.3938 41.1031 13.1906 41.0922C11.9219 41.0813 10.8281 41.6828 10.2156 42.7219C10.0625 42.9844 9.89844 43.2031 9.85469 43.2031C9.73438 43.2031 7.94062 42.4266 7.84219 42.3391C7.79844 42.2953 8.08281 39.2656 8.4875 35.6234L9.23125 28.9844H12.0203C16.0781 28.9844 15.7719 29.05 19.5781 27.1797C21.35 26.3156 23.0781 25.5281 23.4062 25.4406C24.0406 25.2656 26.5453 25.2547 26.95 25.4297ZM7.25156 27.3219C7.35 27.4094 7.4375 27.6391 7.4375 27.8359C7.4375 28.0219 7.09844 31.2703 6.67188 35.0547C6.25625 38.8391 5.90625 41.9453 5.90625 41.9672C5.90625 41.9891 4.99844 42 3.88281 42H1.85938V34.5844C1.85938 30.5047 1.89219 27.125 1.94687 27.0813C1.99063 27.0375 3.16094 27.0266 4.53906 27.0703C6.5625 27.1359 7.0875 27.1797 7.25156 27.3219ZM54.1187 34.5297L54.1406 42H52.1172C51.0016 42 50.0938 41.9891 50.0938 41.9672C50.0938 41.9453 49.7547 38.8391 49.3281 35.0547C48.9125 31.2703 48.5625 28.0219 48.5625 27.8359C48.5625 27.2234 48.7812 27.1359 50.3672 27.0922C51.1547 27.0813 52.3031 27.0594 52.9375 27.0703H54.0859L54.1187 34.5297ZM13.9344 43.2141C14.3062 43.5094 14.5469 43.9797 14.5469 44.4281C14.5469 45.2047 13.5625 46.5719 12.9828 46.6047C11.9 46.6594 11.2328 46.0906 11.2328 45.1172C11.2328 44.5594 11.8891 43.4 12.3375 43.1484C12.7859 42.9078 13.5844 42.9406 13.9344 43.2141ZM18.0141 45.6641C18.4734 45.9703 18.725 46.4844 18.6703 47.0313C18.6156 47.6438 18.1016 48.5297 17.5984 48.8688C16.5266 49.6016 15.0719 48.5188 15.4219 47.25C15.5859 46.6484 16.1984 45.7953 16.625 45.5766C17.0516 45.3578 17.5875 45.3906 18.0141 45.6641ZM22.1703 48.1469C22.5969 48.3984 22.8594 48.9125 22.8594 49.4594C22.8594 49.8969 22.2469 51.0344 21.8531 51.3297C20.9234 52.0188 19.5453 51.2969 19.5453 50.1156C19.5453 49.4484 20.2891 48.2234 20.825 48.0156C21.2297 47.8516 21.7875 47.9063 22.1703 48.1469ZM26.2609 50.5859C26.6984 50.8156 27.0156 51.3625 27.0156 51.8875C27.0156 52.4344 26.3594 53.5938 25.8891 53.8672C24.8937 54.4578 23.6687 53.6922 23.6906 52.4781C23.7125 51.9859 24.4016 50.8156 24.8062 50.5859C25.2 50.3781 25.8562 50.3781 26.2609 50.5859Z" fill="white"/>
</svg>
