<svg width="36" height="36" viewBox="0 0 36 36" fill="black" xmlns="http://www.w3.org/2000/svg">
    <circle cx="18" cy="18" r="18" />
    <path d="M25.0045 9.90625C23.1339 8.03125 20.6429 7 17.9955 7C12.5312 7 8.08482 11.4464 8.08482 16.9107C8.08482 18.6562 8.54018 20.3616 9.40625 21.8661L8 27L13.2545 25.6205C14.7009 26.4107 16.3304 26.8259 17.9911 26.8259H17.9955C23.4554 26.8259 28 22.3795 28 16.9152C28 14.2679 26.875 11.7812 25.0045 9.90625ZM17.9955 25.1562C16.5134 25.1562 15.0625 24.7589 13.7991 24.0089L13.5 23.8304L10.3839 24.6473L11.2143 21.6071L11.0179 21.2946C10.192 19.9821 9.75893 18.4687 9.75893 16.9107C9.75893 12.3705 13.4554 8.67411 18 8.67411C20.2009 8.67411 22.2679 9.53125 23.8214 11.0893C25.375 12.6473 26.3304 14.7143 26.3259 16.9152C26.3259 21.4598 22.5357 25.1562 17.9955 25.1562ZM22.5134 18.9866C22.2679 18.8616 21.0491 18.2634 20.8214 18.183C20.5938 18.0982 20.4286 18.058 20.2634 18.308C20.0982 18.558 19.625 19.1116 19.4777 19.2812C19.3348 19.4464 19.1875 19.4687 18.942 19.3437C17.4866 18.6161 16.5312 18.0446 15.5714 16.3973C15.317 15.9598 15.8259 15.9911 16.2991 15.0446C16.3795 14.8795 16.3393 14.7366 16.2768 14.6116C16.2143 14.4866 15.7188 13.2679 15.5134 12.7723C15.3125 12.2902 15.1071 12.3571 14.9554 12.3482C14.8125 12.3393 14.6473 12.3393 14.4821 12.3393C14.317 12.3393 14.0491 12.4018 13.8214 12.6473C13.5937 12.8973 12.9554 13.4955 12.9554 14.7143C12.9554 15.933 13.8438 17.1116 13.9643 17.2768C14.0893 17.442 15.7098 19.942 18.1964 21.0179C19.7679 21.6964 20.3839 21.7545 21.1696 21.6384C21.6473 21.567 22.6339 21.0402 22.8393 20.4598C23.0446 19.8795 23.0446 19.3839 22.9821 19.2812C22.9241 19.1696 22.7589 19.1071 22.5134 18.9866Z"
          fill="#333333"/>
</svg>
